<?xml version="1.0" encoding="UTF-8" standalone="no"?>
<!DOCTYPE svg PUBLIC "-//W3C//DTD SVG 1.1//EN"
 "http://www.w3.org/Graphics/SVG/1.1/DTD/svg11.dtd">
<!-- Generated by graphviz version 2.38.0 (20140413.2041)
 -->
<!-- Title: snakemake_dag Pages: 1 -->
<svg width="1413pt" height="332pt"
 viewBox="0.00 0.00 1412.53 332.00" xmlns="http://www.w3.org/2000/svg" xmlns:xlink="http://www.w3.org/1999/xlink">
<g id="graph0" class="graph" transform="scale(1 1) rotate(0) translate(4 328)">
<title>snakemake_dag</title>
<polygon fill="white" stroke="none" points="-4,4 -4,-328 1408.53,-328 1408.53,4 -4,4"/>
<!-- 0 -->
<g id="node1" class="node"><title>0</title>
<path fill="none" stroke="#d8cb56" stroke-width="2" d="M688.795,-36C688.795,-36 658.795,-36 658.795,-36 652.795,-36 646.795,-30 646.795,-24 646.795,-24 646.795,-12 646.795,-12 646.795,-6 652.795,-0 658.795,-0 658.795,-0 688.795,-0 688.795,-0 694.795,-0 700.795,-6 700.795,-12 700.795,-12 700.795,-24 700.795,-24 700.795,-30 694.795,-36 688.795,-36"/>
<text text-anchor="middle" x="673.795" y="-15" font-family="sans" font-size="10.00">all</text>
</g>
<!-- 1 -->
<g id="node2" class="node"><title>1</title>
<path fill="none" stroke="#5692d8" stroke-width="2" d="M254.795,-180C254.795,-180 224.795,-180 224.795,-180 218.795,-180 212.795,-174 212.795,-168 212.795,-168 212.795,-156 212.795,-156 212.795,-150 218.795,-144 224.795,-144 224.795,-144 254.795,-144 254.795,-144 260.795,-144 266.795,-150 266.795,-156 266.795,-156 266.795,-168 266.795,-168 266.795,-174 260.795,-180 254.795,-180"/>
<text text-anchor="middle" x="239.795" y="-159" font-family="sans" font-size="10.00">bin</text>
</g>
<!-- 1&#45;&gt;0 -->
<g id="edge1" class="edge"><title>1&#45;&gt;0</title>
<path fill="none" stroke="grey" stroke-width="2" d="M212.692,-159.652C140.281,-155.151 -48.2281,-137.021 11.7951,-72 54.3413,-25.9114 502.882,-19.881 636.463,-19.1088"/>
<polygon fill="grey" stroke="grey" stroke-width="2" points="636.627,-22.6081 646.608,-19.0569 636.591,-15.6082 636.627,-22.6081"/>
</g>
<!-- 4 -->
<g id="node5" class="node"><title>4</title>
<path fill="none" stroke="#70d856" stroke-width="2" d="M83.1652,-108C83.1652,-108 32.425,-108 32.425,-108 26.425,-108 20.425,-102 20.425,-96 20.425,-96 20.425,-84 20.425,-84 20.425,-78 26.425,-72 32.425,-72 32.425,-72 83.1652,-72 83.1652,-72 89.1652,-72 95.1652,-78 95.1652,-84 95.1652,-84 95.1652,-96 95.1652,-96 95.1652,-102 89.1652,-108 83.1652,-108"/>
<text text-anchor="middle" x="57.7951" y="-92" font-family="sans" font-size="10.00">minimap2</text>
<text text-anchor="middle" x="57.7951" y="-82" font-family="sans" font-size="10.00">gene: prima1</text>
</g>
<!-- 1&#45;&gt;4 -->
<g id="edge22" class="edge"><title>1&#45;&gt;4</title>
<path fill="none" stroke="grey" stroke-width="2" d="M212.548,-150.52C183.996,-139.539 138.616,-122.085 104.365,-108.911"/>
<polygon fill="grey" stroke="grey" stroke-width="2" points="105.613,-105.641 95.0226,-105.318 103.1,-112.175 105.613,-105.641"/>
</g>
<!-- 7 -->
<g id="node8" class="node"><title>7</title>
<path fill="none" stroke="#70d856" stroke-width="2" d="M170.721,-108C170.721,-108 124.869,-108 124.869,-108 118.869,-108 112.869,-102 112.869,-96 112.869,-96 112.869,-84 112.869,-84 112.869,-78 118.869,-72 124.869,-72 124.869,-72 170.721,-72 170.721,-72 176.721,-72 182.721,-78 182.721,-84 182.721,-84 182.721,-96 182.721,-96 182.721,-102 176.721,-108 170.721,-108"/>
<text text-anchor="middle" x="147.795" y="-92" font-family="sans" font-size="10.00">minimap2</text>
<text text-anchor="middle" x="147.795" y="-82" font-family="sans" font-size="10.00">gene: HSP4</text>
</g>
<!-- 1&#45;&gt;7 -->
<g id="edge25" class="edge"><title>1&#45;&gt;7</title>
<path fill="none" stroke="grey" stroke-width="2" d="M217.054,-143.697C205.356,-134.796 190.934,-123.823 178.285,-114.199"/>
<polygon fill="grey" stroke="grey" stroke-width="2" points="180.353,-111.374 170.275,-108.104 176.114,-116.945 180.353,-111.374"/>
</g>
<!-- 10 -->
<g id="node11" class="node"><title>10</title>
<path fill="none" stroke="#70d856" stroke-width="2" d="M266.443,-108C266.443,-108 213.148,-108 213.148,-108 207.148,-108 201.148,-102 201.148,-96 201.148,-96 201.148,-84 201.148,-84 201.148,-78 207.148,-72 213.148,-72 213.148,-72 266.443,-72 266.443,-72 272.443,-72 278.443,-78 278.443,-84 278.443,-84 278.443,-96 278.443,-96 278.443,-102 272.443,-108 266.443,-108"/>
<text text-anchor="middle" x="239.795" y="-92" font-family="sans" font-size="10.00">minimap2</text>
<text text-anchor="middle" x="239.795" y="-82" font-family="sans" font-size="10.00">gene: KCNS1</text>
</g>
<!-- 1&#45;&gt;10 -->
<g id="edge28" class="edge"><title>1&#45;&gt;10</title>
<path fill="none" stroke="grey" stroke-width="2" d="M239.795,-143.697C239.795,-135.983 239.795,-126.712 239.795,-118.112"/>
<polygon fill="grey" stroke="grey" stroke-width="2" points="243.295,-118.104 239.795,-108.104 236.295,-118.104 243.295,-118.104"/>
</g>
<!-- 13 -->
<g id="node14" class="node"><title>13</title>
<path fill="none" stroke="#70d856" stroke-width="2" d="M349.769,-108C349.769,-108 307.821,-108 307.821,-108 301.821,-108 295.821,-102 295.821,-96 295.821,-96 295.821,-84 295.821,-84 295.821,-78 301.821,-72 307.821,-72 307.821,-72 349.769,-72 349.769,-72 355.769,-72 361.769,-78 361.769,-84 361.769,-84 361.769,-96 361.769,-96 361.769,-102 355.769,-108 349.769,-108"/>
<text text-anchor="middle" x="328.795" y="-92" font-family="sans" font-size="10.00">minimap2</text>
<text text-anchor="middle" x="328.795" y="-82" font-family="sans" font-size="10.00">gene: GM7</text>
</g>
<!-- 1&#45;&gt;13 -->
<g id="edge31" class="edge"><title>1&#45;&gt;13</title>
<path fill="none" stroke="grey" stroke-width="2" d="M261.795,-143.697C273.004,-134.881 286.797,-124.032 298.949,-114.474"/>
<polygon fill="grey" stroke="grey" stroke-width="2" points="301.352,-117.038 307.048,-108.104 297.024,-111.535 301.352,-117.038"/>
</g>
<!-- 16 -->
<g id="node17" class="node"><title>16</title>
<path fill="none" stroke="#70d856" stroke-width="2" d="M432.769,-108C432.769,-108 390.821,-108 390.821,-108 384.821,-108 378.821,-102 378.821,-96 378.821,-96 378.821,-84 378.821,-84 378.821,-78 384.821,-72 390.821,-72 390.821,-72 432.769,-72 432.769,-72 438.769,-72 444.769,-78 444.769,-84 444.769,-84 444.769,-96 444.769,-96 444.769,-102 438.769,-108 432.769,-108"/>
<text text-anchor="middle" x="411.795" y="-92" font-family="sans" font-size="10.00">minimap2</text>
<text text-anchor="middle" x="411.795" y="-82" font-family="sans" font-size="10.00">gene: GM9</text>
</g>
<!-- 1&#45;&gt;16 -->
<g id="edge34" class="edge"><title>1&#45;&gt;16</title>
<path fill="none" stroke="grey" stroke-width="2" d="M266.919,-150.105C291.515,-140.209 329.005,-125.081 369.24,-108.624"/>
<polygon fill="grey" stroke="grey" stroke-width="2" points="370.759,-111.785 378.687,-104.756 368.106,-105.306 370.759,-111.785"/>
</g>
<!-- 2 -->
<g id="node3" class="node"><title>2</title>
<path fill="none" stroke="#5692d8" stroke-width="2" d="M688.795,-180C688.795,-180 658.795,-180 658.795,-180 652.795,-180 646.795,-174 646.795,-168 646.795,-168 646.795,-156 646.795,-156 646.795,-150 652.795,-144 658.795,-144 658.795,-144 688.795,-144 688.795,-144 694.795,-144 700.795,-150 700.795,-156 700.795,-156 700.795,-168 700.795,-168 700.795,-174 694.795,-180 688.795,-180"/>
<text text-anchor="middle" x="673.795" y="-159" font-family="sans" font-size="10.00">bin</text>
</g>
<!-- 2&#45;&gt;0 -->
<g id="edge2" class="edge"><title>2&#45;&gt;0</title>
<path fill="none" stroke="grey" stroke-width="2" d="M646.757,-157.121C600.766,-149.909 510.46,-132.876 491.795,-108 451.502,-54.2998 572.472,-31.2005 636.629,-22.923"/>
<polygon fill="grey" stroke="grey" stroke-width="2" points="637.279,-26.3695 646.778,-21.6757 636.425,-19.4217 637.279,-26.3695"/>
</g>
<!-- 5 -->
<g id="node6" class="node"><title>5</title>
<path fill="none" stroke="#70d856" stroke-width="2" d="M563.165,-108C563.165,-108 512.425,-108 512.425,-108 506.425,-108 500.425,-102 500.425,-96 500.425,-96 500.425,-84 500.425,-84 500.425,-78 506.425,-72 512.425,-72 512.425,-72 563.165,-72 563.165,-72 569.165,-72 575.165,-78 575.165,-84 575.165,-84 575.165,-96 575.165,-96 575.165,-102 569.165,-108 563.165,-108"/>
<text text-anchor="middle" x="537.795" y="-92" font-family="sans" font-size="10.00">minimap2</text>
<text text-anchor="middle" x="537.795" y="-82" font-family="sans" font-size="10.00">gene: prima1</text>
</g>
<!-- 2&#45;&gt;5 -->
<g id="edge23" class="edge"><title>2&#45;&gt;5</title>
<path fill="none" stroke="grey" stroke-width="2" d="M646.6,-147.003C627.609,-137.228 601.879,-123.984 580.208,-112.83"/>
<polygon fill="grey" stroke="grey" stroke-width="2" points="581.694,-109.658 571.201,-108.194 578.49,-115.882 581.694,-109.658"/>
</g>
<!-- 8 -->
<g id="node9" class="node"><title>8</title>
<path fill="none" stroke="#70d856" stroke-width="2" d="M650.721,-108C650.721,-108 604.869,-108 604.869,-108 598.869,-108 592.869,-102 592.869,-96 592.869,-96 592.869,-84 592.869,-84 592.869,-78 598.869,-72 604.869,-72 604.869,-72 650.721,-72 650.721,-72 656.721,-72 662.721,-78 662.721,-84 662.721,-84 662.721,-96 662.721,-96 662.721,-102 656.721,-108 650.721,-108"/>
<text text-anchor="middle" x="627.795" y="-92" font-family="sans" font-size="10.00">minimap2</text>
<text text-anchor="middle" x="627.795" y="-82" font-family="sans" font-size="10.00">gene: HSP4</text>
</g>
<!-- 2&#45;&gt;8 -->
<g id="edge26" class="edge"><title>2&#45;&gt;8</title>
<path fill="none" stroke="grey" stroke-width="2" d="M662.424,-143.697C657.077,-135.559 650.591,-125.689 644.685,-116.701"/>
<polygon fill="grey" stroke="grey" stroke-width="2" points="647.452,-114.539 639.035,-108.104 641.602,-118.384 647.452,-114.539"/>
</g>
<!-- 11 -->
<g id="node12" class="node"><title>11</title>
<path fill="none" stroke="#70d856" stroke-width="2" d="M746.443,-108C746.443,-108 693.148,-108 693.148,-108 687.148,-108 681.148,-102 681.148,-96 681.148,-96 681.148,-84 681.148,-84 681.148,-78 687.148,-72 693.148,-72 693.148,-72 746.443,-72 746.443,-72 752.443,-72 758.443,-78 758.443,-84 758.443,-84 758.443,-96 758.443,-96 758.443,-102 752.443,-108 746.443,-108"/>
<text text-anchor="middle" x="719.795" y="-92" font-family="sans" font-size="10.00">minimap2</text>
<text text-anchor="middle" x="719.795" y="-82" font-family="sans" font-size="10.00">gene: KCNS1</text>
</g>
<!-- 2&#45;&gt;11 -->
<g id="edge29" class="edge"><title>2&#45;&gt;11</title>
<path fill="none" stroke="grey" stroke-width="2" d="M685.166,-143.697C690.514,-135.559 696.999,-125.689 702.906,-116.701"/>
<polygon fill="grey" stroke="grey" stroke-width="2" points="705.988,-118.384 708.555,-108.104 700.138,-114.539 705.988,-118.384"/>
</g>
<!-- 14 -->
<g id="node15" class="node"><title>14</title>
<path fill="none" stroke="#70d856" stroke-width="2" d="M829.769,-108C829.769,-108 787.821,-108 787.821,-108 781.821,-108 775.821,-102 775.821,-96 775.821,-96 775.821,-84 775.821,-84 775.821,-78 781.821,-72 787.821,-72 787.821,-72 829.769,-72 829.769,-72 835.769,-72 841.769,-78 841.769,-84 841.769,-84 841.769,-96 841.769,-96 841.769,-102 835.769,-108 829.769,-108"/>
<text text-anchor="middle" x="808.795" y="-92" font-family="sans" font-size="10.00">minimap2</text>
<text text-anchor="middle" x="808.795" y="-82" font-family="sans" font-size="10.00">gene: GM7</text>
</g>
<!-- 2&#45;&gt;14 -->
<g id="edge32" class="edge"><title>2&#45;&gt;14</title>
<path fill="none" stroke="grey" stroke-width="2" d="M701.114,-146.834C719.991,-137.047 745.458,-123.841 766.887,-112.73"/>
<polygon fill="grey" stroke="grey" stroke-width="2" points="768.526,-115.823 775.792,-108.113 765.303,-109.609 768.526,-115.823"/>
</g>
<!-- 17 -->
<g id="node18" class="node"><title>17</title>
<path fill="none" stroke="#70d856" stroke-width="2" d="M912.769,-108C912.769,-108 870.821,-108 870.821,-108 864.821,-108 858.821,-102 858.821,-96 858.821,-96 858.821,-84 858.821,-84 858.821,-78 864.821,-72 870.821,-72 870.821,-72 912.769,-72 912.769,-72 918.769,-72 924.769,-78 924.769,-84 924.769,-84 924.769,-96 924.769,-96 924.769,-102 918.769,-108 912.769,-108"/>
<text text-anchor="middle" x="891.795" y="-92" font-family="sans" font-size="10.00">minimap2</text>
<text text-anchor="middle" x="891.795" y="-82" font-family="sans" font-size="10.00">gene: GM9</text>
</g>
<!-- 2&#45;&gt;17 -->
<g id="edge35" class="edge"><title>2&#45;&gt;17</title>
<path fill="none" stroke="grey" stroke-width="2" d="M701.061,-153.768C734.217,-144.773 792.005,-128.451 849.24,-108.406"/>
<polygon fill="grey" stroke="grey" stroke-width="2" points="850.532,-111.662 858.79,-105.025 848.195,-105.064 850.532,-111.662"/>
</g>
<!-- 3 -->
<g id="node4" class="node"><title>3</title>
<path fill="none" stroke="#5692d8" stroke-width="2" d="M1122.8,-180C1122.8,-180 1092.8,-180 1092.8,-180 1086.8,-180 1080.8,-174 1080.8,-168 1080.8,-168 1080.8,-156 1080.8,-156 1080.8,-150 1086.8,-144 1092.8,-144 1092.8,-144 1122.8,-144 1122.8,-144 1128.8,-144 1134.8,-150 1134.8,-156 1134.8,-156 1134.8,-168 1134.8,-168 1134.8,-174 1128.8,-180 1122.8,-180"/>
<text text-anchor="middle" x="1107.8" y="-159" font-family="sans" font-size="10.00">bin</text>
</g>
<!-- 3&#45;&gt;0 -->
<g id="edge3" class="edge"><title>3&#45;&gt;0</title>
<path fill="none" stroke="grey" stroke-width="2" d="M1080.54,-153.777C1052,-145.46 1006.57,-130.047 971.795,-108 952.146,-95.5441 954.433,-82.7376 933.795,-72 860.961,-34.1065 763.525,-23.2871 711.042,-20.2106"/>
<polygon fill="grey" stroke="grey" stroke-width="2" points="711.027,-16.7051 700.858,-19.6786 710.662,-23.6955 711.027,-16.7051"/>
</g>
<!-- 6 -->
<g id="node7" class="node"><title>6</title>
<path fill="none" stroke="#70d856" stroke-width="2" d="M1043.17,-108C1043.17,-108 992.425,-108 992.425,-108 986.425,-108 980.425,-102 980.425,-96 980.425,-96 980.425,-84 980.425,-84 980.425,-78 986.425,-72 992.425,-72 992.425,-72 1043.17,-72 1043.17,-72 1049.17,-72 1055.17,-78 1055.17,-84 1055.17,-84 1055.17,-96 1055.17,-96 1055.17,-102 1049.17,-108 1043.17,-108"/>
<text text-anchor="middle" x="1017.8" y="-92" font-family="sans" font-size="10.00">minimap2</text>
<text text-anchor="middle" x="1017.8" y="-82" font-family="sans" font-size="10.00">gene: prima1</text>
</g>
<!-- 3&#45;&gt;6 -->
<g id="edge24" class="edge"><title>3&#45;&gt;6</title>
<path fill="none" stroke="grey" stroke-width="2" d="M1085.55,-143.697C1074.21,-134.881 1060.26,-124.032 1047.98,-114.474"/>
<polygon fill="grey" stroke="grey" stroke-width="2" points="1049.83,-111.481 1039.79,-108.104 1045.53,-117.007 1049.83,-111.481"/>
</g>
<!-- 9 -->
<g id="node10" class="node"><title>9</title>
<path fill="none" stroke="#70d856" stroke-width="2" d="M1130.72,-108C1130.72,-108 1084.87,-108 1084.87,-108 1078.87,-108 1072.87,-102 1072.87,-96 1072.87,-96 1072.87,-84 1072.87,-84 1072.87,-78 1078.87,-72 1084.87,-72 1084.87,-72 1130.72,-72 1130.72,-72 1136.72,-72 1142.72,-78 1142.72,-84 1142.72,-84 1142.72,-96 1142.72,-96 1142.72,-102 1136.72,-108 1130.72,-108"/>
<text text-anchor="middle" x="1107.8" y="-92" font-family="sans" font-size="10.00">minimap2</text>
<text text-anchor="middle" x="1107.8" y="-82" font-family="sans" font-size="10.00">gene: HSP4</text>
</g>
<!-- 3&#45;&gt;9 -->
<g id="edge27" class="edge"><title>3&#45;&gt;9</title>
<path fill="none" stroke="grey" stroke-width="2" d="M1107.8,-143.697C1107.8,-135.983 1107.8,-126.712 1107.8,-118.112"/>
<polygon fill="grey" stroke="grey" stroke-width="2" points="1111.3,-118.104 1107.8,-108.104 1104.3,-118.104 1111.3,-118.104"/>
</g>
<!-- 12 -->
<g id="node13" class="node"><title>12</title>
<path fill="none" stroke="#70d856" stroke-width="2" d="M1226.44,-108C1226.44,-108 1173.15,-108 1173.15,-108 1167.15,-108 1161.15,-102 1161.15,-96 1161.15,-96 1161.15,-84 1161.15,-84 1161.15,-78 1167.15,-72 1173.15,-72 1173.15,-72 1226.44,-72 1226.44,-72 1232.44,-72 1238.44,-78 1238.44,-84 1238.44,-84 1238.44,-96 1238.44,-96 1238.44,-102 1232.44,-108 1226.44,-108"/>
<text text-anchor="middle" x="1199.8" y="-92" font-family="sans" font-size="10.00">minimap2</text>
<text text-anchor="middle" x="1199.8" y="-82" font-family="sans" font-size="10.00">gene: KCNS1</text>
</g>
<!-- 3&#45;&gt;12 -->
<g id="edge30" class="edge"><title>3&#45;&gt;12</title>
<path fill="none" stroke="grey" stroke-width="2" d="M1130.54,-143.697C1142.23,-134.796 1156.66,-123.823 1169.31,-114.199"/>
<polygon fill="grey" stroke="grey" stroke-width="2" points="1171.48,-116.945 1177.32,-108.104 1167.24,-111.374 1171.48,-116.945"/>
</g>
<!-- 15 -->
<g id="node16" class="node"><title>15</title>
<path fill="none" stroke="#70d856" stroke-width="2" d="M1309.77,-108C1309.77,-108 1267.82,-108 1267.82,-108 1261.82,-108 1255.82,-102 1255.82,-96 1255.82,-96 1255.82,-84 1255.82,-84 1255.82,-78 1261.82,-72 1267.82,-72 1267.82,-72 1309.77,-72 1309.77,-72 1315.77,-72 1321.77,-78 1321.77,-84 1321.77,-84 1321.77,-96 1321.77,-96 1321.77,-102 1315.77,-108 1309.77,-108"/>
<text text-anchor="middle" x="1288.8" y="-92" font-family="sans" font-size="10.00">minimap2</text>
<text text-anchor="middle" x="1288.8" y="-82" font-family="sans" font-size="10.00">gene: GM7</text>
</g>
<!-- 3&#45;&gt;15 -->
<g id="edge33" class="edge"><title>3&#45;&gt;15</title>
<path fill="none" stroke="grey" stroke-width="2" d="M1134.99,-150.99C1161.39,-141.21 1202.81,-125.705 1246.39,-108.513"/>
<polygon fill="grey" stroke="grey" stroke-width="2" points="1247.7,-111.756 1255.71,-104.821 1245.13,-105.248 1247.7,-111.756"/>
</g>
<!-- 18 -->
<g id="node19" class="node"><title>18</title>
<path fill="none" stroke="#70d856" stroke-width="2" d="M1392.77,-108C1392.77,-108 1350.82,-108 1350.82,-108 1344.82,-108 1338.82,-102 1338.82,-96 1338.82,-96 1338.82,-84 1338.82,-84 1338.82,-78 1344.82,-72 1350.82,-72 1350.82,-72 1392.77,-72 1392.77,-72 1398.77,-72 1404.77,-78 1404.77,-84 1404.77,-84 1404.77,-96 1404.77,-96 1404.77,-102 1398.77,-108 1392.77,-108"/>
<text text-anchor="middle" x="1371.8" y="-92" font-family="sans" font-size="10.00">minimap2</text>
<text text-anchor="middle" x="1371.8" y="-82" font-family="sans" font-size="10.00">gene: GM9</text>
</g>
<!-- 3&#45;&gt;18 -->
<g id="edge36" class="edge"><title>3&#45;&gt;18</title>
<path fill="none" stroke="grey" stroke-width="2" d="M1134.95,-156.002C1175.59,-148.212 1254.68,-131.852 1329.3,-108.259"/>
<polygon fill="grey" stroke="grey" stroke-width="2" points="1330.4,-111.583 1338.85,-105.192 1328.26,-104.919 1330.4,-111.583"/>
</g>
<!-- 4&#45;&gt;0 -->
<g id="edge4" class="edge"><title>4&#45;&gt;0</title>
<path fill="none" stroke="grey" stroke-width="2" d="M95.2079,-74.2665C98.0878,-73.412 100.972,-72.6412 103.795,-72 300.967,-27.2132 544.739,-20.1385 636.519,-19.1213"/>
<polygon fill="grey" stroke="grey" stroke-width="2" points="636.727,-22.6196 646.694,-19.027 636.662,-15.6199 636.727,-22.6196"/>
</g>
<!-- 5&#45;&gt;0 -->
<g id="edge5" class="edge"><title>5&#45;&gt;0</title>
<path fill="none" stroke="grey" stroke-width="2" d="M571.064,-71.8761C591.113,-61.5567 616.668,-48.4034 637.275,-37.7973"/>
<polygon fill="grey" stroke="grey" stroke-width="2" points="639.067,-40.8112 646.357,-33.1228 635.863,-34.5873 639.067,-40.8112"/>
</g>
<!-- 6&#45;&gt;0 -->
<g id="edge6" class="edge"><title>6&#45;&gt;0</title>
<path fill="none" stroke="grey" stroke-width="2" d="M980.376,-75.8524C975.829,-74.4551 971.226,-73.133 966.795,-72 876.224,-48.8396 767.399,-31.9524 711.308,-24.0333"/>
<polygon fill="grey" stroke="grey" stroke-width="2" points="711.527,-20.53 701.139,-22.6146 710.56,-27.4628 711.527,-20.53"/>
</g>
<!-- 7&#45;&gt;0 -->
<g id="edge7" class="edge"><title>7&#45;&gt;0</title>
<path fill="none" stroke="grey" stroke-width="2" d="M183.084,-74.461C186.002,-73.5362 188.931,-72.6982 191.795,-72 354.217,-32.4064 554.69,-22.3476 636.444,-19.8272"/>
<polygon fill="grey" stroke="grey" stroke-width="2" points="636.829,-23.3177 646.724,-19.5314 636.627,-16.3206 636.829,-23.3177"/>
</g>
<!-- 8&#45;&gt;0 -->
<g id="edge8" class="edge"><title>8&#45;&gt;0</title>
<path fill="none" stroke="grey" stroke-width="2" d="M639.166,-71.6966C644.514,-63.5589 650.999,-53.689 656.906,-44.7013"/>
<polygon fill="grey" stroke="grey" stroke-width="2" points="659.988,-46.3835 662.555,-36.1043 654.138,-42.5393 659.988,-46.3835"/>
</g>
<!-- 9&#45;&gt;0 -->
<g id="edge9" class="edge"><title>9&#45;&gt;0</title>
<path fill="none" stroke="grey" stroke-width="2" d="M1072.49,-74.5419C1069.57,-73.599 1066.65,-72.7348 1063.8,-72 936.964,-39.3603 781.443,-25.8864 711.281,-21.1754"/>
<polygon fill="grey" stroke="grey" stroke-width="2" points="711.372,-17.674 701.166,-20.5177 710.918,-24.6593 711.372,-17.674"/>
</g>
<!-- 10&#45;&gt;0 -->
<g id="edge10" class="edge"><title>10&#45;&gt;0</title>
<path fill="none" stroke="grey" stroke-width="2" d="M278.583,-74.2563C281.343,-73.4281 284.099,-72.6643 286.795,-72 412.995,-40.905 567.149,-26.6628 636.663,-21.4681"/>
<polygon fill="grey" stroke="grey" stroke-width="2" points="636.964,-24.9555 646.684,-20.7386 636.456,-17.974 636.964,-24.9555"/>
</g>
<!-- 11&#45;&gt;0 -->
<g id="edge11" class="edge"><title>11&#45;&gt;0</title>
<path fill="none" stroke="grey" stroke-width="2" d="M708.424,-71.6966C703.077,-63.5589 696.591,-53.689 690.685,-44.7013"/>
<polygon fill="grey" stroke="grey" stroke-width="2" points="693.452,-42.5393 685.035,-36.1043 687.602,-46.3835 693.452,-42.5393"/>
</g>
<!-- 12&#45;&gt;0 -->
<g id="edge12" class="edge"><title>12&#45;&gt;0</title>
<path fill="none" stroke="grey" stroke-width="2" d="M1160.98,-74.4126C1157.9,-73.5118 1154.81,-72.6916 1151.8,-72 990.377,-34.9866 792.148,-23.5126 711.048,-20.2217"/>
<polygon fill="grey" stroke="grey" stroke-width="2" points="710.974,-16.7164 700.846,-19.8264 710.703,-23.7111 710.974,-16.7164"/>
</g>
<!-- 13&#45;&gt;0 -->
<g id="edge13" class="edge"><title>13&#45;&gt;0</title>
<path fill="none" stroke="grey" stroke-width="2" d="M361.689,-74.6292C364.406,-73.6668 367.131,-72.7742 369.795,-72 463.751,-44.6942 578.371,-29.3743 636.351,-22.836"/>
<polygon fill="grey" stroke="grey" stroke-width="2" points="636.945,-26.2918 646.501,-21.7164 636.177,-19.334 636.945,-26.2918"/>
</g>
<!-- 14&#45;&gt;0 -->
<g id="edge14" class="edge"><title>14&#45;&gt;0</title>
<path fill="none" stroke="grey" stroke-width="2" d="M775.77,-71.8761C755.869,-61.5567 730.502,-48.4034 710.047,-37.7973"/>
<polygon fill="grey" stroke="grey" stroke-width="2" points="711.521,-34.6188 701.032,-33.1228 708.298,-40.8331 711.521,-34.6188"/>
</g>
<!-- 15&#45;&gt;0 -->
<g id="edge15" class="edge"><title>15&#45;&gt;0</title>
<path fill="none" stroke="grey" stroke-width="2" d="M1255.97,-74.3903C1253.23,-73.4814 1250.49,-72.6663 1247.8,-72 1049.92,-23.0385 803.55,-18.4373 711.12,-18.6013"/>
<polygon fill="grey" stroke="grey" stroke-width="2" points="710.864,-15.1022 700.877,-18.6408 710.891,-22.1022 710.864,-15.1022"/>
</g>
<!-- 16&#45;&gt;0 -->
<g id="edge16" class="edge"><title>16&#45;&gt;0</title>
<path fill="none" stroke="grey" stroke-width="2" d="M444.773,-76.5777C449.454,-74.9591 454.228,-73.3847 458.795,-72 520.483,-53.2972 593.597,-36.3574 636.705,-26.8946"/>
<polygon fill="grey" stroke="grey" stroke-width="2" points="637.708,-30.2584 646.733,-24.7096 636.217,-23.4189 637.708,-30.2584"/>
</g>
<!-- 17&#45;&gt;0 -->
<g id="edge17" class="edge"><title>17&#45;&gt;0</title>
<path fill="none" stroke="grey" stroke-width="2" d="M858.79,-74.9752C856.098,-73.9352 853.408,-72.9303 850.795,-72 803.212,-55.0612 747.202,-38.9091 711.133,-28.984"/>
<polygon fill="grey" stroke="grey" stroke-width="2" points="711.63,-25.4917 701.061,-26.2321 709.785,-32.2442 711.63,-25.4917"/>
</g>
<!-- 18&#45;&gt;0 -->
<g id="edge18" class="edge"><title>18&#45;&gt;0</title>
<path fill="none" stroke="grey" stroke-width="2" d="M1338.97,-74.3557C1336.24,-73.4546 1333.49,-72.6507 1330.8,-72 1211.75,-43.273 832.491,-25.5331 711.366,-20.4895"/>
<polygon fill="grey" stroke="grey" stroke-width="2" points="711.254,-16.9821 701.118,-20.0676 710.966,-23.9761 711.254,-16.9821"/>
</g>
<!-- 19 -->
<g id="node20" class="node"><title>19</title>
<path fill="none" stroke="#d85656" stroke-width="2" d="M342.795,-252C342.795,-252 312.795,-252 312.795,-252 306.795,-252 300.795,-246 300.795,-240 300.795,-240 300.795,-228 300.795,-228 300.795,-222 306.795,-216 312.795,-216 312.795,-216 342.795,-216 342.795,-216 348.795,-216 354.795,-222 354.795,-228 354.795,-228 354.795,-240 354.795,-240 354.795,-246 348.795,-252 342.795,-252"/>
<text text-anchor="middle" x="327.795" y="-231" font-family="sans" font-size="10.00">blastn</text>
</g>
<!-- 19&#45;&gt;1 -->
<g id="edge19" class="edge"><title>19&#45;&gt;1</title>
<path fill="none" stroke="grey" stroke-width="2" d="M306.042,-215.697C294.959,-206.881 281.321,-196.032 269.306,-186.474"/>
<polygon fill="grey" stroke="grey" stroke-width="2" points="271.303,-183.59 261.298,-180.104 266.945,-189.069 271.303,-183.59"/>
</g>
<!-- 20 -->
<g id="node21" class="node"><title>20</title>
<path fill="none" stroke="#d85656" stroke-width="2" d="M688.795,-252C688.795,-252 658.795,-252 658.795,-252 652.795,-252 646.795,-246 646.795,-240 646.795,-240 646.795,-228 646.795,-228 646.795,-222 652.795,-216 658.795,-216 658.795,-216 688.795,-216 688.795,-216 694.795,-216 700.795,-222 700.795,-228 700.795,-228 700.795,-240 700.795,-240 700.795,-246 694.795,-252 688.795,-252"/>
<text text-anchor="middle" x="673.795" y="-231" font-family="sans" font-size="10.00">blastn</text>
</g>
<!-- 20&#45;&gt;2 -->
<g id="edge20" class="edge"><title>20&#45;&gt;2</title>
<path fill="none" stroke="grey" stroke-width="2" d="M673.795,-215.697C673.795,-207.983 673.795,-198.712 673.795,-190.112"/>
<polygon fill="grey" stroke="grey" stroke-width="2" points="677.295,-190.104 673.795,-180.104 670.295,-190.104 677.295,-190.104"/>
</g>
<!-- 21 -->
<g id="node22" class="node"><title>21</title>
<path fill="none" stroke="#d85656" stroke-width="2" d="M1043.8,-252C1043.8,-252 1013.8,-252 1013.8,-252 1007.8,-252 1001.8,-246 1001.8,-240 1001.8,-240 1001.8,-228 1001.8,-228 1001.8,-222 1007.8,-216 1013.8,-216 1013.8,-216 1043.8,-216 1043.8,-216 1049.8,-216 1055.8,-222 1055.8,-228 1055.8,-228 1055.8,-240 1055.8,-240 1055.8,-246 1049.8,-252 1043.8,-252"/>
<text text-anchor="middle" x="1028.8" y="-231" font-family="sans" font-size="10.00">blastn</text>
</g>
<!-- 21&#45;&gt;3 -->
<g id="edge21" class="edge"><title>21&#45;&gt;3</title>
<path fill="none" stroke="grey" stroke-width="2" d="M1048.32,-215.697C1058.18,-206.965 1070.28,-196.24 1080.99,-186.75"/>
<polygon fill="grey" stroke="grey" stroke-width="2" points="1083.33,-189.356 1088.49,-180.104 1078.69,-184.117 1083.33,-189.356"/>
</g>
<!-- 22 -->
<g id="node23" class="node"><title>22</title>
<path fill="none" stroke="#d88d56" stroke-width="2" d="M644.995,-324C644.995,-324 596.595,-324 596.595,-324 590.595,-324 584.595,-318 584.595,-312 584.595,-312 584.595,-300 584.595,-300 584.595,-294 590.595,-288 596.595,-288 596.595,-288 644.995,-288 644.995,-288 650.995,-288 656.995,-294 656.995,-300 656.995,-300 656.995,-312 656.995,-312 656.995,-318 650.995,-324 644.995,-324"/>
<text text-anchor="middle" x="620.795" y="-303" font-family="sans" font-size="10.00">makeblastdb</text>
</g>
<!-- 22&#45;&gt;19 -->
<g id="edge37" class="edge"><title>22&#45;&gt;19</title>
<path fill="none" stroke="grey" stroke-width="2" d="M584.574,-296.346C528.504,-282.951 421.279,-257.334 364.76,-243.831"/>
<polygon fill="grey" stroke="grey" stroke-width="2" points="365.36,-240.376 354.821,-241.457 363.734,-247.185 365.36,-240.376"/>
</g>
<!-- 22&#45;&gt;20 -->
<g id="edge39" class="edge"><title>22&#45;&gt;20</title>
<path fill="none" stroke="grey" stroke-width="2" d="M633.896,-287.697C640.186,-279.389 647.842,-269.277 654.76,-260.141"/>
<polygon fill="grey" stroke="grey" stroke-width="2" points="657.599,-262.19 660.845,-252.104 652.018,-257.964 657.599,-262.19"/>
</g>
<!-- 22&#45;&gt;21 -->
<g id="edge41" class="edge"><title>22&#45;&gt;21</title>
<path fill="none" stroke="grey" stroke-width="2" d="M657.235,-290.752C660.442,-289.736 663.66,-288.799 666.795,-288 783.107,-258.339 924.965,-243.588 991.269,-237.897"/>
<polygon fill="grey" stroke="grey" stroke-width="2" points="991.949,-241.352 1001.62,-237.03 991.365,-234.377 991.949,-241.352"/>
</g>
<!-- 23 -->
<g id="node24" class="node"><title>23</title>
<path fill="none" stroke="#afd856" stroke-width="2" stroke-dasharray="5,2" d="M368.25,-324C368.25,-324 287.34,-324 287.34,-324 281.34,-324 275.34,-318 275.34,-312 275.34,-312 275.34,-300 275.34,-300 275.34,-294 281.34,-288 287.34,-288 287.34,-288 368.25,-288 368.25,-288 374.25,-288 380.25,-294 380.25,-300 380.25,-300 380.25,-312 380.25,-312 380.25,-318 374.25,-324 368.25,-324"/>
<text text-anchor="middle" x="327.795" y="-308" font-family="sans" font-size="10.00">fastq_to_fasta</text>
<text text-anchor="middle" x="327.795" y="-298" font-family="sans" font-size="10.00">barcode: barcode01</text>
</g>
<!-- 23&#45;&gt;19 -->
<g id="edge38" class="edge"><title>23&#45;&gt;19</title>
<path fill="none" stroke="grey" stroke-width="2" d="M327.795,-287.697C327.795,-279.983 327.795,-270.712 327.795,-262.112"/>
<polygon fill="grey" stroke="grey" stroke-width="2" points="331.295,-262.104 327.795,-252.104 324.295,-262.104 331.295,-262.104"/>
</g>
<!-- 24 -->
<g id="node25" class="node"><title>24</title>
<path fill="none" stroke="#afd856" stroke-width="2" stroke-dasharray="5,2" d="M768.25,-324C768.25,-324 687.34,-324 687.34,-324 681.34,-324 675.34,-318 675.34,-312 675.34,-312 675.34,-300 675.34,-300 675.34,-294 681.34,-288 687.34,-288 687.34,-288 768.25,-288 768.25,-288 774.25,-288 780.25,-294 780.25,-300 780.25,-300 780.25,-312 780.25,-312 780.25,-318 774.25,-324 768.25,-324"/>
<text text-anchor="middle" x="727.795" y="-308" font-family="sans" font-size="10.00">fastq_to_fasta</text>
<text text-anchor="middle" x="727.795" y="-298" font-family="sans" font-size="10.00">barcode: barcode02</text>
</g>
<!-- 24&#45;&gt;20 -->
<g id="edge40" class="edge"><title>24&#45;&gt;20</title>
<path fill="none" stroke="grey" stroke-width="2" d="M714.447,-287.697C708.038,-279.389 700.237,-269.277 693.189,-260.141"/>
<polygon fill="grey" stroke="grey" stroke-width="2" points="695.869,-257.884 686.99,-252.104 690.327,-262.16 695.869,-257.884"/>
</g>
<!-- 25 -->
<g id="node26" class="node"><title>25</title>
<path fill="none" stroke="#afd856" stroke-width="2" stroke-dasharray="5,2" d="M1069.25,-324C1069.25,-324 988.34,-324 988.34,-324 982.34,-324 976.34,-318 976.34,-312 976.34,-312 976.34,-300 976.34,-300 976.34,-294 982.34,-288 988.34,-288 988.34,-288 1069.25,-288 1069.25,-288 1075.25,-288 1081.25,-294 1081.25,-300 1081.25,-300 1081.25,-312 1081.25,-312 1081.25,-318 1075.25,-324 1069.25,-324"/>
<text text-anchor="middle" x="1028.8" y="-308" font-family="sans" font-size="10.00">fastq_to_fasta</text>
<text text-anchor="middle" x="1028.8" y="-298" font-family="sans" font-size="10.00">barcode: barcode03</text>
</g>
<!-- 25&#45;&gt;21 -->
<g id="edge42" class="edge"><title>25&#45;&gt;21</title>
<path fill="none" stroke="grey" stroke-width="2" d="M1028.8,-287.697C1028.8,-279.983 1028.8,-270.712 1028.8,-262.112"/>
<polygon fill="grey" stroke="grey" stroke-width="2" points="1032.3,-262.104 1028.8,-252.104 1025.3,-262.104 1032.3,-262.104"/>
</g>
</g>
</svg>
