<?xml version="1.0" encoding="UTF-8" standalone="no"?>
<!DOCTYPE svg PUBLIC "-//W3C//DTD SVG 1.1//EN"
 "http://www.w3.org/Graphics/SVG/1.1/DTD/svg11.dtd">
<!-- Generated by graphviz version 2.40.1 (20161225.0304)
 -->
<!-- Title: snakemake_dag Pages: 1 -->
<svg width="354pt" height="260pt"
 viewBox="0.00 0.00 354.09 260.00" xmlns="http://www.w3.org/2000/svg" xmlns:xlink="http://www.w3.org/1999/xlink">
<g id="graph0" class="graph" transform="scale(1 1) rotate(0) translate(4 256)">
<title>snakemake_dag</title>
<polygon fill="#ffffff" stroke="transparent" points="-4,4 -4,-256 350.0855,-256 350.0855,4 -4,4"/>
<!-- 0 -->
<g id="node1" class="node">
<title>0</title>
<path fill="none" stroke="#56a9d8" stroke-width="2" d="M99.5044,-36C99.5044,-36 69.5044,-36 69.5044,-36 63.5044,-36 57.5044,-30 57.5044,-24 57.5044,-24 57.5044,-12 57.5044,-12 57.5044,-6 63.5044,0 69.5044,0 69.5044,0 99.5044,0 99.5044,0 105.5044,0 111.5044,-6 111.5044,-12 111.5044,-12 111.5044,-24 111.5044,-24 111.5044,-30 105.5044,-36 99.5044,-36"/>
<text text-anchor="middle" x="84.5044" y="-15" font-family="sans" font-size="10.00" fill="#000000">all</text>
</g>
<!-- 1 -->
<g id="node2" class="node">
<title>1</title>
<path fill="none" stroke="#d85656" stroke-width="2" d="M169.3463,-252C169.3463,-252 79.6625,-252 79.6625,-252 73.6625,-252 67.6625,-246 67.6625,-240 67.6625,-240 67.6625,-228 67.6625,-228 67.6625,-222 73.6625,-216 79.6625,-216 79.6625,-216 169.3463,-216 169.3463,-216 175.3463,-216 181.3463,-222 181.3463,-228 181.3463,-228 181.3463,-240 181.3463,-240 181.3463,-246 175.3463,-252 169.3463,-252"/>
<text text-anchor="middle" x="124.5044" y="-231" font-family="sans" font-size="10.00" fill="#000000">demultiplex_porechop</text>
</g>
<!-- 1&#45;&gt;0 -->
<g id="edge1" class="edge">
<title>1&#45;&gt;0</title>
<path fill="none" stroke="#c0c0c0" stroke-width="2" d="M67.6491,-221.3262C45.5753,-213.3303 22.5133,-200.4802 9.5044,-180 -19.3409,-134.5881 25.4143,-76.2779 57.2207,-43.44"/>
<polygon fill="#c0c0c0" stroke="#c0c0c0" stroke-width="2" points="60.0002,-45.609 64.5761,-36.0532 55.0399,-40.6698 60.0002,-45.609"/>
</g>
<!-- 4 -->
<g id="node5" class="node">
<title>4</title>
<path fill="none" stroke="#56d8a9" stroke-width="2" d="M104.1667,-180C104.1667,-180 30.8422,-180 30.8422,-180 24.8422,-180 18.8422,-174 18.8422,-168 18.8422,-168 18.8422,-156 18.8422,-156 18.8422,-150 24.8422,-144 30.8422,-144 30.8422,-144 104.1667,-144 104.1667,-144 110.1667,-144 116.1667,-150 116.1667,-156 116.1667,-156 116.1667,-168 116.1667,-168 116.1667,-174 110.1667,-180 104.1667,-180"/>
<text text-anchor="middle" x="67.5044" y="-164" font-family="sans" font-size="10.00" fill="#000000">ParaMethR</text>
<text text-anchor="middle" x="67.5044" y="-154" font-family="sans" font-size="10.00" fill="#000000">barcode: Sample1</text>
</g>
<!-- 1&#45;&gt;4 -->
<g id="edge10" class="edge">
<title>1&#45;&gt;4</title>
<path fill="none" stroke="#c0c0c0" stroke-width="2" d="M110.1209,-215.8314C103.5558,-207.5386 95.6537,-197.557 88.4467,-188.4533"/>
<polygon fill="#c0c0c0" stroke="#c0c0c0" stroke-width="2" points="91.0328,-186.0813 82.0816,-180.4133 85.5445,-190.4262 91.0328,-186.0813"/>
</g>
<!-- 5 -->
<g id="node6" class="node">
<title>5</title>
<path fill="none" stroke="#56d8a9" stroke-width="2" d="M219.1667,-180C219.1667,-180 145.8422,-180 145.8422,-180 139.8422,-180 133.8422,-174 133.8422,-168 133.8422,-168 133.8422,-156 133.8422,-156 133.8422,-150 139.8422,-144 145.8422,-144 145.8422,-144 219.1667,-144 219.1667,-144 225.1667,-144 231.1667,-150 231.1667,-156 231.1667,-156 231.1667,-168 231.1667,-168 231.1667,-174 225.1667,-180 219.1667,-180"/>
<text text-anchor="middle" x="182.5044" y="-164" font-family="sans" font-size="10.00" fill="#000000">ParaMethR</text>
<text text-anchor="middle" x="182.5044" y="-154" font-family="sans" font-size="10.00" fill="#000000">barcode: Sample2</text>
</g>
<!-- 1&#45;&gt;5 -->
<g id="edge11" class="edge">
<title>1&#45;&gt;5</title>
<path fill="none" stroke="#c0c0c0" stroke-width="2" d="M139.1403,-215.8314C145.8206,-207.5386 153.8613,-197.557 161.1948,-188.4533"/>
<polygon fill="#c0c0c0" stroke="#c0c0c0" stroke-width="2" points="164.1238,-190.3965 167.6715,-180.4133 158.6726,-186.0052 164.1238,-190.3965"/>
</g>
<!-- 6 -->
<g id="node7" class="node">
<title>6</title>
<path fill="none" stroke="#56d8a9" stroke-width="2" d="M334.1667,-180C334.1667,-180 260.8422,-180 260.8422,-180 254.8422,-180 248.8422,-174 248.8422,-168 248.8422,-168 248.8422,-156 248.8422,-156 248.8422,-150 254.8422,-144 260.8422,-144 260.8422,-144 334.1667,-144 334.1667,-144 340.1667,-144 346.1667,-150 346.1667,-156 346.1667,-156 346.1667,-168 346.1667,-168 346.1667,-174 340.1667,-180 334.1667,-180"/>
<text text-anchor="middle" x="297.5044" y="-164" font-family="sans" font-size="10.00" fill="#000000">ParaMethR</text>
<text text-anchor="middle" x="297.5044" y="-154" font-family="sans" font-size="10.00" fill="#000000">barcode: Sample3</text>
</g>
<!-- 1&#45;&gt;6 -->
<g id="edge12" class="edge">
<title>1&#45;&gt;6</title>
<path fill="none" stroke="#c0c0c0" stroke-width="2" d="M168.1596,-215.8314C191.4002,-206.159 220.1612,-194.1891 244.6567,-183.9944"/>
<polygon fill="#c0c0c0" stroke="#c0c0c0" stroke-width="2" points="246.2756,-187.1117 254.1632,-180.038 243.586,-180.6491 246.2756,-187.1117"/>
</g>
<!-- 2 -->
<g id="node3" class="node">
<title>2</title>
<path fill="none" stroke="#afd856" stroke-width="2" d="M211.0435,-108C211.0435,-108 153.9654,-108 153.9654,-108 147.9654,-108 141.9654,-102 141.9654,-96 141.9654,-96 141.9654,-84 141.9654,-84 141.9654,-78 147.9654,-72 153.9654,-72 153.9654,-72 211.0435,-72 211.0435,-72 217.0435,-72 223.0435,-78 223.0435,-84 223.0435,-84 223.0435,-96 223.0435,-96 223.0435,-102 217.0435,-108 211.0435,-108"/>
<text text-anchor="middle" x="182.5044" y="-87" font-family="sans" font-size="10.00" fill="#000000">gather_reports</text>
</g>
<!-- 2&#45;&gt;0 -->
<g id="edge2" class="edge">
<title>2&#45;&gt;0</title>
<path fill="none" stroke="#c0c0c0" stroke-width="2" d="M157.7749,-71.8314C145.5883,-62.8779 130.7221,-51.9558 117.5733,-42.2955"/>
<polygon fill="#c0c0c0" stroke="#c0c0c0" stroke-width="2" points="119.3572,-39.263 109.2261,-36.1628 115.2126,-44.9042 119.3572,-39.263"/>
</g>
<!-- 3 -->
<g id="node4" class="node">
<title>3</title>
<path fill="none" stroke="#59d856" stroke-width="2" d="M112.3843,-108C112.3843,-108 56.6246,-108 56.6246,-108 50.6246,-108 44.6246,-102 44.6246,-96 44.6246,-96 44.6246,-84 44.6246,-84 44.6246,-78 50.6246,-72 56.6246,-72 56.6246,-72 112.3843,-72 112.3843,-72 118.3843,-72 124.3843,-78 124.3843,-84 124.3843,-84 124.3843,-96 124.3843,-96 124.3843,-102 118.3843,-108 112.3843,-108"/>
<text text-anchor="middle" x="84.5044" y="-87" font-family="sans" font-size="10.00" fill="#000000">gather_counts</text>
</g>
<!-- 3&#45;&gt;0 -->
<g id="edge3" class="edge">
<title>3&#45;&gt;0</title>
<path fill="none" stroke="#c0c0c0" stroke-width="2" d="M84.5044,-71.8314C84.5044,-64.131 84.5044,-54.9743 84.5044,-46.4166"/>
<polygon fill="#c0c0c0" stroke="#c0c0c0" stroke-width="2" points="88.0045,-46.4132 84.5044,-36.4133 81.0045,-46.4133 88.0045,-46.4132"/>
</g>
<!-- 4&#45;&gt;2 -->
<g id="edge4" class="edge">
<title>4&#45;&gt;2</title>
<path fill="none" stroke="#c0c0c0" stroke-width="2" d="M96.5238,-143.8314C111.233,-134.6221 129.2689,-123.3301 145.0166,-113.4706"/>
<polygon fill="#c0c0c0" stroke="#c0c0c0" stroke-width="2" points="146.8758,-116.436 153.4944,-108.1628 143.1612,-110.5029 146.8758,-116.436"/>
</g>
<!-- 4&#45;&gt;3 -->
<g id="edge7" class="edge">
<title>4&#45;&gt;3</title>
<path fill="none" stroke="#c0c0c0" stroke-width="2" d="M71.7943,-143.8314C73.6124,-136.131 75.7744,-126.9743 77.795,-118.4166"/>
<polygon fill="#c0c0c0" stroke="#c0c0c0" stroke-width="2" points="81.2652,-118.95 80.1569,-108.4133 74.4525,-117.3414 81.2652,-118.95"/>
</g>
<!-- 5&#45;&gt;2 -->
<g id="edge5" class="edge">
<title>5&#45;&gt;2</title>
<path fill="none" stroke="#c0c0c0" stroke-width="2" d="M182.5044,-143.8314C182.5044,-136.131 182.5044,-126.9743 182.5044,-118.4166"/>
<polygon fill="#c0c0c0" stroke="#c0c0c0" stroke-width="2" points="186.0045,-118.4132 182.5044,-108.4133 179.0045,-118.4133 186.0045,-118.4132"/>
</g>
<!-- 5&#45;&gt;3 -->
<g id="edge8" class="edge">
<title>5&#45;&gt;3</title>
<path fill="none" stroke="#c0c0c0" stroke-width="2" d="M157.7749,-143.8314C145.5883,-134.8779 130.7221,-123.9558 117.5733,-114.2955"/>
<polygon fill="#c0c0c0" stroke="#c0c0c0" stroke-width="2" points="119.3572,-111.263 109.2261,-108.1628 115.2126,-116.9042 119.3572,-111.263"/>
</g>
<!-- 6&#45;&gt;2 -->
<g id="edge6" class="edge">
<title>6&#45;&gt;2</title>
<path fill="none" stroke="#c0c0c0" stroke-width="2" d="M268.4851,-143.8314C253.7759,-134.6221 235.74,-123.3301 219.9922,-113.4706"/>
<polygon fill="#c0c0c0" stroke="#c0c0c0" stroke-width="2" points="221.8477,-110.5029 211.5145,-108.1628 218.133,-116.436 221.8477,-110.5029"/>
</g>
<!-- 6&#45;&gt;3 -->
<g id="edge9" class="edge">
<title>6&#45;&gt;3</title>
<path fill="none" stroke="#c0c0c0" stroke-width="2" d="M248.5873,-146.5918C217.9089,-136.7914 177.3332,-123.5815 133.8787,-108.427"/>
<polygon fill="#c0c0c0" stroke="#c0c0c0" stroke-width="2" points="134.8644,-105.0638 124.2695,-105.0603 132.5497,-111.6701 134.8644,-105.0638"/>
</g>
</g>
</svg>
