<?xml version="1.0" encoding="UTF-8" standalone="no"?>
<!DOCTYPE svg PUBLIC "-//W3C//DTD SVG 1.1//EN"
 "http://www.w3.org/Graphics/SVG/1.1/DTD/svg11.dtd">
<!-- Generated by graphviz version 2.40.1 (20161225.0304)
 -->
<!-- Title: snakemake_dag Pages: 1 -->
<svg width="527pt" height="404pt"
 viewBox="0.00 0.00 527.05 404.00" xmlns="http://www.w3.org/2000/svg" xmlns:xlink="http://www.w3.org/1999/xlink">
<g id="graph0" class="graph" transform="scale(1 1) rotate(0) translate(4 400)">
<title>snakemake_dag</title>
<polygon fill="#ffffff" stroke="transparent" points="-4,4 -4,-400 523.0463,-400 523.0463,4 -4,4"/>
<!-- 0 -->
<g id="node1" class="node">
<title>0</title>
<path fill="none" stroke="#d85656" stroke-width="2" d="M338.959,-36C338.959,-36 308.959,-36 308.959,-36 302.959,-36 296.959,-30 296.959,-24 296.959,-24 296.959,-12 296.959,-12 296.959,-6 302.959,0 308.959,0 308.959,0 338.959,0 338.959,0 344.959,0 350.959,-6 350.959,-12 350.959,-12 350.959,-24 350.959,-24 350.959,-30 344.959,-36 338.959,-36"/>
<text text-anchor="middle" x="323.959" y="-15" font-family="sans" font-size="10.00" fill="#000000">all</text>
</g>
<!-- 1 -->
<g id="node2" class="node">
<title>1</title>
<path fill="none" stroke="#56a2d8" stroke-width="2" d="M338.959,-108C338.959,-108 308.959,-108 308.959,-108 302.959,-108 296.959,-102 296.959,-96 296.959,-96 296.959,-84 296.959,-84 296.959,-78 302.959,-72 308.959,-72 308.959,-72 338.959,-72 338.959,-72 344.959,-72 350.959,-78 350.959,-84 350.959,-84 350.959,-96 350.959,-96 350.959,-102 344.959,-108 338.959,-108"/>
<text text-anchor="middle" x="323.959" y="-87" font-family="sans" font-size="10.00" fill="#000000">bin</text>
</g>
<!-- 1&#45;&gt;0 -->
<g id="edge1" class="edge">
<title>1&#45;&gt;0</title>
<path fill="none" stroke="#c0c0c0" stroke-width="2" d="M323.959,-71.8314C323.959,-64.131 323.959,-54.9743 323.959,-46.4166"/>
<polygon fill="#c0c0c0" stroke="#c0c0c0" stroke-width="2" points="327.4591,-46.4132 323.959,-36.4133 320.4591,-46.4133 327.4591,-46.4132"/>
</g>
<!-- 2 -->
<g id="node3" class="node">
<title>2</title>
<path fill="none" stroke="#56a2d8" stroke-width="2" d="M141.959,-108C141.959,-108 111.959,-108 111.959,-108 105.959,-108 99.959,-102 99.959,-96 99.959,-96 99.959,-84 99.959,-84 99.959,-78 105.959,-72 111.959,-72 111.959,-72 141.959,-72 141.959,-72 147.959,-72 153.959,-78 153.959,-84 153.959,-84 153.959,-96 153.959,-96 153.959,-102 147.959,-108 141.959,-108"/>
<text text-anchor="middle" x="126.959" y="-87" font-family="sans" font-size="10.00" fill="#000000">bin</text>
</g>
<!-- 2&#45;&gt;0 -->
<g id="edge2" class="edge">
<title>2&#45;&gt;0</title>
<path fill="none" stroke="#c0c0c0" stroke-width="2" d="M154.351,-79.9887C188.901,-67.3613 248.4436,-45.5995 286.9991,-31.5082"/>
<polygon fill="#c0c0c0" stroke="#c0c0c0" stroke-width="2" points="288.6088,-34.6464 296.7996,-27.9263 286.2058,-28.0717 288.6088,-34.6464"/>
</g>
<!-- 3 -->
<g id="node4" class="node">
<title>3</title>
<path fill="none" stroke="#56a2d8" stroke-width="2" d="M448.959,-108C448.959,-108 418.959,-108 418.959,-108 412.959,-108 406.959,-102 406.959,-96 406.959,-96 406.959,-84 406.959,-84 406.959,-78 412.959,-72 418.959,-72 418.959,-72 448.959,-72 448.959,-72 454.959,-72 460.959,-78 460.959,-84 460.959,-84 460.959,-96 460.959,-96 460.959,-102 454.959,-108 448.959,-108"/>
<text text-anchor="middle" x="433.959" y="-87" font-family="sans" font-size="10.00" fill="#000000">bin</text>
</g>
<!-- 3&#45;&gt;0 -->
<g id="edge3" class="edge">
<title>3&#45;&gt;0</title>
<path fill="none" stroke="#c0c0c0" stroke-width="2" d="M406.768,-72.2022C392.6212,-62.9425 375.1433,-51.5025 359.896,-41.5224"/>
<polygon fill="#c0c0c0" stroke="#c0c0c0" stroke-width="2" points="361.5023,-38.3907 351.2184,-35.8425 357.6686,-44.2476 361.5023,-38.3907"/>
</g>
<!-- 4 -->
<g id="node5" class="node">
<title>4</title>
<path fill="none" stroke="#78d856" stroke-width="2" d="M301.959,-180C301.959,-180 271.959,-180 271.959,-180 265.959,-180 259.959,-174 259.959,-168 259.959,-168 259.959,-156 259.959,-156 259.959,-150 265.959,-144 271.959,-144 271.959,-144 301.959,-144 301.959,-144 307.959,-144 313.959,-150 313.959,-156 313.959,-156 313.959,-168 313.959,-168 313.959,-174 307.959,-180 301.959,-180"/>
<text text-anchor="middle" x="286.959" y="-159" font-family="sans" font-size="10.00" fill="#000000">blastn</text>
</g>
<!-- 4&#45;&gt;1 -->
<g id="edge4" class="edge">
<title>4&#45;&gt;1</title>
<path fill="none" stroke="#c0c0c0" stroke-width="2" d="M296.2957,-143.8314C300.3833,-135.8771 305.2694,-126.369 309.7899,-117.5723"/>
<polygon fill="#c0c0c0" stroke="#c0c0c0" stroke-width="2" points="313.0389,-118.9074 314.4966,-108.4133 306.8129,-115.7078 313.0389,-118.9074"/>
</g>
<!-- 5 -->
<g id="node6" class="node">
<title>5</title>
<path fill="none" stroke="#d8a456" stroke-width="2" stroke-dasharray="5,2" d="M360.5029,-324C360.5029,-324 293.415,-324 293.415,-324 287.415,-324 281.415,-318 281.415,-312 281.415,-312 281.415,-300 281.415,-300 281.415,-294 287.415,-288 293.415,-288 293.415,-288 360.5029,-288 360.5029,-288 366.5029,-288 372.5029,-294 372.5029,-300 372.5029,-300 372.5029,-312 372.5029,-312 372.5029,-318 366.5029,-324 360.5029,-324"/>
<text text-anchor="middle" x="326.959" y="-303" font-family="sans" font-size="10.00" fill="#000000">demultiplex_qcat</text>
</g>
<!-- 5&#45;&gt;1 -->
<g id="edge5" class="edge">
<title>5&#45;&gt;1</title>
<path fill="none" stroke="#c0c0c0" stroke-width="2" d="M336.1166,-287.5129C340.6603,-277.3118 345.6591,-264.2593 347.959,-252 356.7577,-205.0991 343.7036,-150.0642 333.6686,-117.7198"/>
<polygon fill="#c0c0c0" stroke="#c0c0c0" stroke-width="2" points="336.9514,-116.4956 330.5481,-108.0547 330.29,-118.6464 336.9514,-116.4956"/>
</g>
<!-- 5&#45;&gt;2 -->
<g id="edge7" class="edge">
<title>5&#45;&gt;2</title>
<path fill="none" stroke="#c0c0c0" stroke-width="2" d="M281.2839,-301.4146C198.1697,-292.6082 29.1491,-272.3878 11.959,-252 -27.9134,-204.7107 44.5152,-144.1751 91.4701,-112.1598"/>
<polygon fill="#c0c0c0" stroke="#c0c0c0" stroke-width="2" points="93.5368,-114.9883 99.9083,-106.5234 89.6487,-109.1674 93.5368,-114.9883"/>
</g>
<!-- 5&#45;&gt;3 -->
<g id="edge9" class="edge">
<title>5&#45;&gt;3</title>
<path fill="none" stroke="#c0c0c0" stroke-width="2" d="M372.7471,-298.6834C420.8472,-289.9527 491.7444,-273.7584 507.959,-252 540.3377,-208.551 493.7089,-148.6728 461.0693,-115.2196"/>
<polygon fill="#c0c0c0" stroke="#c0c0c0" stroke-width="2" points="463.4922,-112.6928 453.944,-108.1013 458.5449,-117.645 463.4922,-112.6928"/>
</g>
<!-- 8 -->
<g id="node9" class="node">
<title>8</title>
<path fill="none" stroke="#c6d856" stroke-width="2" stroke-dasharray="5,2" d="M327.4141,-252C327.4141,-252 246.5039,-252 246.5039,-252 240.5039,-252 234.5039,-246 234.5039,-240 234.5039,-240 234.5039,-228 234.5039,-228 234.5039,-222 240.5039,-216 246.5039,-216 246.5039,-216 327.4141,-216 327.4141,-216 333.4141,-216 339.4141,-222 339.4141,-228 339.4141,-228 339.4141,-240 339.4141,-240 339.4141,-246 333.4141,-252 327.4141,-252"/>
<text text-anchor="middle" x="286.959" y="-236" font-family="sans" font-size="10.00" fill="#000000">fastq_to_fasta</text>
<text text-anchor="middle" x="286.959" y="-226" font-family="sans" font-size="10.00" fill="#000000">barcode: barcode01</text>
</g>
<!-- 5&#45;&gt;8 -->
<g id="edge17" class="edge">
<title>5&#45;&gt;8</title>
<path fill="none" stroke="#c0c0c0" stroke-width="2" d="M316.8653,-287.8314C312.3993,-279.7925 307.0515,-270.1666 302.1211,-261.2918"/>
<polygon fill="#c0c0c0" stroke="#c0c0c0" stroke-width="2" points="305.1046,-259.4551 297.1886,-252.4133 298.9855,-262.8546 305.1046,-259.4551"/>
</g>
<!-- 11 -->
<g id="node12" class="node">
<title>11</title>
<path fill="none" stroke="#c6d856" stroke-width="2" stroke-dasharray="5,2" d="M113.4141,-252C113.4141,-252 32.5039,-252 32.5039,-252 26.5039,-252 20.5039,-246 20.5039,-240 20.5039,-240 20.5039,-228 20.5039,-228 20.5039,-222 26.5039,-216 32.5039,-216 32.5039,-216 113.4141,-216 113.4141,-216 119.4141,-216 125.4141,-222 125.4141,-228 125.4141,-228 125.4141,-240 125.4141,-240 125.4141,-246 119.4141,-252 113.4141,-252"/>
<text text-anchor="middle" x="72.959" y="-236" font-family="sans" font-size="10.00" fill="#000000">fastq_to_fasta</text>
<text text-anchor="middle" x="72.959" y="-226" font-family="sans" font-size="10.00" fill="#000000">barcode: barcode03</text>
</g>
<!-- 5&#45;&gt;11 -->
<g id="edge18" class="edge">
<title>5&#45;&gt;11</title>
<path fill="none" stroke="#c0c0c0" stroke-width="2" d="M281.1519,-293.2331C244.3623,-282.9532 191.1155,-268.0159 135.4061,-252.1172"/>
<polygon fill="#c0c0c0" stroke="#c0c0c0" stroke-width="2" points="136.2923,-248.7304 125.7155,-249.349 134.3695,-255.4612 136.2923,-248.7304"/>
</g>
<!-- 12 -->
<g id="node13" class="node">
<title>12</title>
<path fill="none" stroke="#c6d856" stroke-width="2" stroke-dasharray="5,2" d="M487.4141,-252C487.4141,-252 406.5039,-252 406.5039,-252 400.5039,-252 394.5039,-246 394.5039,-240 394.5039,-240 394.5039,-228 394.5039,-228 394.5039,-222 400.5039,-216 406.5039,-216 406.5039,-216 487.4141,-216 487.4141,-216 493.4141,-216 499.4141,-222 499.4141,-228 499.4141,-228 499.4141,-240 499.4141,-240 499.4141,-246 493.4141,-252 487.4141,-252"/>
<text text-anchor="middle" x="446.959" y="-236" font-family="sans" font-size="10.00" fill="#000000">fastq_to_fasta</text>
<text text-anchor="middle" x="446.959" y="-226" font-family="sans" font-size="10.00" fill="#000000">barcode: barcode02</text>
</g>
<!-- 5&#45;&gt;12 -->
<g id="edge19" class="edge">
<title>5&#45;&gt;12</title>
<path fill="none" stroke="#c0c0c0" stroke-width="2" d="M357.2401,-287.8314C372.5888,-278.6221 391.4088,-267.3301 407.8413,-257.4706"/>
<polygon fill="#c0c0c0" stroke="#c0c0c0" stroke-width="2" points="409.9134,-260.3091 416.6876,-252.1628 406.3119,-254.3066 409.9134,-260.3091"/>
</g>
<!-- 6 -->
<g id="node7" class="node">
<title>6</title>
<path fill="none" stroke="#78d856" stroke-width="2" d="M141.959,-180C141.959,-180 111.959,-180 111.959,-180 105.959,-180 99.959,-174 99.959,-168 99.959,-168 99.959,-156 99.959,-156 99.959,-150 105.959,-144 111.959,-144 111.959,-144 141.959,-144 141.959,-144 147.959,-144 153.959,-150 153.959,-156 153.959,-156 153.959,-168 153.959,-168 153.959,-174 147.959,-180 141.959,-180"/>
<text text-anchor="middle" x="126.959" y="-159" font-family="sans" font-size="10.00" fill="#000000">blastn</text>
</g>
<!-- 6&#45;&gt;2 -->
<g id="edge6" class="edge">
<title>6&#45;&gt;2</title>
<path fill="none" stroke="#c0c0c0" stroke-width="2" d="M126.959,-143.8314C126.959,-136.131 126.959,-126.9743 126.959,-118.4166"/>
<polygon fill="#c0c0c0" stroke="#c0c0c0" stroke-width="2" points="130.4591,-118.4132 126.959,-108.4133 123.4591,-118.4133 130.4591,-118.4132"/>
</g>
<!-- 7 -->
<g id="node8" class="node">
<title>7</title>
<path fill="none" stroke="#78d856" stroke-width="2" d="M448.959,-180C448.959,-180 418.959,-180 418.959,-180 412.959,-180 406.959,-174 406.959,-168 406.959,-168 406.959,-156 406.959,-156 406.959,-150 412.959,-144 418.959,-144 418.959,-144 448.959,-144 448.959,-144 454.959,-144 460.959,-150 460.959,-156 460.959,-156 460.959,-168 460.959,-168 460.959,-174 454.959,-180 448.959,-180"/>
<text text-anchor="middle" x="433.959" y="-159" font-family="sans" font-size="10.00" fill="#000000">blastn</text>
</g>
<!-- 7&#45;&gt;3 -->
<g id="edge8" class="edge">
<title>7&#45;&gt;3</title>
<path fill="none" stroke="#c0c0c0" stroke-width="2" d="M433.959,-143.8314C433.959,-136.131 433.959,-126.9743 433.959,-118.4166"/>
<polygon fill="#c0c0c0" stroke="#c0c0c0" stroke-width="2" points="437.4591,-118.4132 433.959,-108.4133 430.4591,-118.4133 437.4591,-118.4132"/>
</g>
<!-- 8&#45;&gt;4 -->
<g id="edge10" class="edge">
<title>8&#45;&gt;4</title>
<path fill="none" stroke="#c0c0c0" stroke-width="2" d="M286.959,-215.8314C286.959,-208.131 286.959,-198.9743 286.959,-190.4166"/>
<polygon fill="#c0c0c0" stroke="#c0c0c0" stroke-width="2" points="290.4591,-190.4132 286.959,-180.4133 283.4591,-190.4133 290.4591,-190.4132"/>
</g>
<!-- 9 -->
<g id="node10" class="node">
<title>9</title>
<path fill="none" stroke="#56d87b" stroke-width="2" d="M204.1588,-252C204.1588,-252 155.7592,-252 155.7592,-252 149.7592,-252 143.7592,-246 143.7592,-240 143.7592,-240 143.7592,-228 143.7592,-228 143.7592,-222 149.7592,-216 155.7592,-216 155.7592,-216 204.1588,-216 204.1588,-216 210.1588,-216 216.1588,-222 216.1588,-228 216.1588,-228 216.1588,-240 216.1588,-240 216.1588,-246 210.1588,-252 204.1588,-252"/>
<text text-anchor="middle" x="179.959" y="-231" font-family="sans" font-size="10.00" fill="#000000">makeblastdb</text>
</g>
<!-- 9&#45;&gt;4 -->
<g id="edge11" class="edge">
<title>9&#45;&gt;4</title>
<path fill="none" stroke="#c0c0c0" stroke-width="2" d="M206.9596,-215.8314C220.3921,-206.7927 236.8063,-195.7476 251.2629,-186.0198"/>
<polygon fill="#c0c0c0" stroke="#c0c0c0" stroke-width="2" points="253.6244,-188.6494 259.967,-180.1628 249.7165,-182.8418 253.6244,-188.6494"/>
</g>
<!-- 9&#45;&gt;6 -->
<g id="edge14" class="edge">
<title>9&#45;&gt;6</title>
<path fill="none" stroke="#c0c0c0" stroke-width="2" d="M166.5849,-215.8314C160.5428,-207.6232 153.2827,-197.7606 146.6369,-188.7323"/>
<polygon fill="#c0c0c0" stroke="#c0c0c0" stroke-width="2" points="149.2601,-186.3918 140.5132,-180.4133 143.6227,-190.5415 149.2601,-186.3918"/>
</g>
<!-- 9&#45;&gt;7 -->
<g id="edge16" class="edge">
<title>9&#45;&gt;7</title>
<path fill="none" stroke="#c0c0c0" stroke-width="2" d="M216.2235,-219.3493C219.4977,-218.1663 222.7775,-217.0314 225.959,-216 284.9747,-196.8678 355.084,-179.8063 396.9739,-170.1979"/>
<polygon fill="#c0c0c0" stroke="#c0c0c0" stroke-width="2" points="397.7639,-173.6077 406.7381,-167.9763 396.2108,-166.7822 397.7639,-173.6077"/>
</g>
<!-- 10 -->
<g id="node11" class="node">
<title>10</title>
<path fill="none" stroke="#56d8c9" stroke-width="2" stroke-dasharray="5,2" d="M379.3106,-396C379.3106,-396 274.6073,-396 274.6073,-396 268.6073,-396 262.6073,-390 262.6073,-384 262.6073,-384 262.6073,-372 262.6073,-372 262.6073,-366 268.6073,-360 274.6073,-360 274.6073,-360 379.3106,-360 379.3106,-360 385.3106,-360 391.3106,-366 391.3106,-372 391.3106,-372 391.3106,-384 391.3106,-384 391.3106,-390 385.3106,-396 379.3106,-396"/>
<text text-anchor="middle" x="326.959" y="-380" font-family="sans" font-size="10.00" fill="#000000">gather</text>
<text text-anchor="middle" x="326.959" y="-370" font-family="sans" font-size="10.00" fill="#000000">run_name: aging_mice_1</text>
</g>
<!-- 10&#45;&gt;5 -->
<g id="edge12" class="edge">
<title>10&#45;&gt;5</title>
<path fill="none" stroke="#c0c0c0" stroke-width="2" d="M326.959,-359.8314C326.959,-352.131 326.959,-342.9743 326.959,-334.4166"/>
<polygon fill="#c0c0c0" stroke="#c0c0c0" stroke-width="2" points="330.4591,-334.4132 326.959,-324.4133 323.4591,-334.4133 330.4591,-334.4132"/>
</g>
<!-- 11&#45;&gt;6 -->
<g id="edge13" class="edge">
<title>11&#45;&gt;6</title>
<path fill="none" stroke="#c0c0c0" stroke-width="2" d="M86.5855,-215.8314C92.805,-207.5386 100.2912,-197.557 107.119,-188.4533"/>
<polygon fill="#c0c0c0" stroke="#c0c0c0" stroke-width="2" points="109.949,-190.5133 113.149,-180.4133 104.349,-186.3133 109.949,-190.5133"/>
</g>
<!-- 12&#45;&gt;7 -->
<g id="edge15" class="edge">
<title>12&#45;&gt;7</title>
<path fill="none" stroke="#c0c0c0" stroke-width="2" d="M443.6785,-215.8314C442.2882,-208.131 440.6349,-198.9743 439.0898,-190.4166"/>
<polygon fill="#c0c0c0" stroke="#c0c0c0" stroke-width="2" points="442.5048,-189.6322 437.2836,-180.4133 435.6162,-190.8761 442.5048,-189.6322"/>
</g>
</g>
</svg>
