<?xml version="1.0" encoding="UTF-8" standalone="no"?>
<!DOCTYPE svg PUBLIC "-//W3C//DTD SVG 1.1//EN"
 "http://www.w3.org/Graphics/SVG/1.1/DTD/svg11.dtd">
<!-- Generated by graphviz version 2.40.1 (20161225.0304)
 -->
<!-- Title: snakemake_dag Pages: 1 -->
<svg width="695pt" height="620pt"
 viewBox="0.00 0.00 694.74 620.00" xmlns="http://www.w3.org/2000/svg" xmlns:xlink="http://www.w3.org/1999/xlink">
<g id="graph0" class="graph" transform="scale(1 1) rotate(0) translate(4 616)">
<title>snakemake_dag</title>
<polygon fill="#ffffff" stroke="transparent" points="-4,4 -4,-616 690.7432,-616 690.7432,4 -4,4"/>
<!-- 0 -->
<g id="node1" class="node">
<title>0</title>
<path fill="none" stroke="#ced856" stroke-width="2" stroke-dasharray="5,2" d="M358.3716,-36C358.3716,-36 328.3716,-36 328.3716,-36 322.3716,-36 316.3716,-30 316.3716,-24 316.3716,-24 316.3716,-12 316.3716,-12 316.3716,-6 322.3716,0 328.3716,0 328.3716,0 358.3716,0 358.3716,0 364.3716,0 370.3716,-6 370.3716,-12 370.3716,-12 370.3716,-24 370.3716,-24 370.3716,-30 364.3716,-36 358.3716,-36"/>
<text text-anchor="middle" x="343.3716" y="-15" font-family="sans" font-size="10.00" fill="#000000">all</text>
</g>
<!-- 1 -->
<g id="node2" class="node">
<title>1</title>
<path fill="none" stroke="#56b1d8" stroke-width="2" stroke-dasharray="5,2" d="M358.3716,-108C358.3716,-108 328.3716,-108 328.3716,-108 322.3716,-108 316.3716,-102 316.3716,-96 316.3716,-96 316.3716,-84 316.3716,-84 316.3716,-78 322.3716,-72 328.3716,-72 328.3716,-72 358.3716,-72 358.3716,-72 364.3716,-72 370.3716,-78 370.3716,-84 370.3716,-84 370.3716,-96 370.3716,-96 370.3716,-102 364.3716,-108 358.3716,-108"/>
<text text-anchor="middle" x="343.3716" y="-87" font-family="sans" font-size="10.00" fill="#000000">count</text>
</g>
<!-- 1&#45;&gt;0 -->
<g id="edge1" class="edge">
<title>1&#45;&gt;0</title>
<path fill="none" stroke="#c0c0c0" stroke-width="2" d="M343.3716,-71.8314C343.3716,-64.131 343.3716,-54.9743 343.3716,-46.4166"/>
<polygon fill="#c0c0c0" stroke="#c0c0c0" stroke-width="2" points="346.8717,-46.4132 343.3716,-36.4133 339.8717,-46.4133 346.8717,-46.4132"/>
</g>
<!-- 2 -->
<g id="node3" class="node">
<title>2</title>
<path fill="none" stroke="#56d89a" stroke-width="2" stroke-dasharray="5,2" d="M392.615,-180C392.615,-180 294.1281,-180 294.1281,-180 288.1281,-180 282.1281,-174 282.1281,-168 282.1281,-168 282.1281,-156 282.1281,-156 282.1281,-150 288.1281,-144 294.1281,-144 294.1281,-144 392.615,-144 392.615,-144 398.615,-144 404.615,-150 404.615,-156 404.615,-156 404.615,-168 404.615,-168 404.615,-174 398.615,-180 392.615,-180"/>
<text text-anchor="middle" x="343.3716" y="-159" font-family="sans" font-size="10.00" fill="#000000">organise_minion_output</text>
</g>
<!-- 2&#45;&gt;1 -->
<g id="edge2" class="edge">
<title>2&#45;&gt;1</title>
<path fill="none" stroke="#c0c0c0" stroke-width="2" d="M343.3716,-143.8314C343.3716,-136.131 343.3716,-126.9743 343.3716,-118.4166"/>
<polygon fill="#c0c0c0" stroke="#c0c0c0" stroke-width="2" points="346.8717,-118.4132 343.3716,-108.4133 339.8717,-118.4133 346.8717,-118.4132"/>
</g>
<!-- 3 -->
<g id="node4" class="node">
<title>3</title>
<path fill="none" stroke="#56d89a" stroke-width="2" stroke-dasharray="5,2" d="M110.615,-180C110.615,-180 12.1281,-180 12.1281,-180 6.1281,-180 .1281,-174 .1281,-168 .1281,-168 .1281,-156 .1281,-156 .1281,-150 6.1281,-144 12.1281,-144 12.1281,-144 110.615,-144 110.615,-144 116.615,-144 122.615,-150 122.615,-156 122.615,-156 122.615,-168 122.615,-168 122.615,-174 116.615,-180 110.615,-180"/>
<text text-anchor="middle" x="61.3716" y="-159" font-family="sans" font-size="10.00" fill="#000000">organise_minion_output</text>
</g>
<!-- 3&#45;&gt;1 -->
<g id="edge3" class="edge">
<title>3&#45;&gt;1</title>
<path fill="none" stroke="#c0c0c0" stroke-width="2" d="M122.9092,-146.2883C178.8065,-132.0166 259.4421,-111.4288 306.1183,-99.5115"/>
<polygon fill="#c0c0c0" stroke="#c0c0c0" stroke-width="2" points="307.2773,-102.8279 316.1006,-96.9628 305.5455,-96.0455 307.2773,-102.8279"/>
</g>
<!-- 4 -->
<g id="node5" class="node">
<title>4</title>
<path fill="none" stroke="#56d89a" stroke-width="2" stroke-dasharray="5,2" d="M251.615,-180C251.615,-180 153.1281,-180 153.1281,-180 147.1281,-180 141.1281,-174 141.1281,-168 141.1281,-168 141.1281,-156 141.1281,-156 141.1281,-150 147.1281,-144 153.1281,-144 153.1281,-144 251.615,-144 251.615,-144 257.615,-144 263.615,-150 263.615,-156 263.615,-156 263.615,-168 263.615,-168 263.615,-174 257.615,-180 251.615,-180"/>
<text text-anchor="middle" x="202.3716" y="-159" font-family="sans" font-size="10.00" fill="#000000">organise_minion_output</text>
</g>
<!-- 4&#45;&gt;1 -->
<g id="edge4" class="edge">
<title>4&#45;&gt;1</title>
<path fill="none" stroke="#c0c0c0" stroke-width="2" d="M237.9518,-143.8314C259.1294,-133.0173 285.9312,-119.3312 307.2105,-108.4652"/>
<polygon fill="#c0c0c0" stroke="#c0c0c0" stroke-width="2" points="308.9441,-111.51 316.2584,-103.845 305.7606,-105.2757 308.9441,-111.51"/>
</g>
<!-- 5 -->
<g id="node6" class="node">
<title>5</title>
<path fill="none" stroke="#56d89a" stroke-width="2" stroke-dasharray="5,2" d="M674.615,-180C674.615,-180 576.1281,-180 576.1281,-180 570.1281,-180 564.1281,-174 564.1281,-168 564.1281,-168 564.1281,-156 564.1281,-156 564.1281,-150 570.1281,-144 576.1281,-144 576.1281,-144 674.615,-144 674.615,-144 680.615,-144 686.615,-150 686.615,-156 686.615,-156 686.615,-168 686.615,-168 686.615,-174 680.615,-180 674.615,-180"/>
<text text-anchor="middle" x="625.3716" y="-159" font-family="sans" font-size="10.00" fill="#000000">organise_minion_output</text>
</g>
<!-- 5&#45;&gt;1 -->
<g id="edge5" class="edge">
<title>5&#45;&gt;1</title>
<path fill="none" stroke="#c0c0c0" stroke-width="2" d="M563.834,-146.2883C507.9367,-132.0166 427.3011,-111.4288 380.6249,-99.5115"/>
<polygon fill="#c0c0c0" stroke="#c0c0c0" stroke-width="2" points="381.1976,-96.0455 370.6426,-96.9628 379.4659,-102.8279 381.1976,-96.0455"/>
</g>
<!-- 6 -->
<g id="node7" class="node">
<title>6</title>
<path fill="none" stroke="#56d89a" stroke-width="2" stroke-dasharray="5,2" d="M533.615,-180C533.615,-180 435.1281,-180 435.1281,-180 429.1281,-180 423.1281,-174 423.1281,-168 423.1281,-168 423.1281,-156 423.1281,-156 423.1281,-150 429.1281,-144 435.1281,-144 435.1281,-144 533.615,-144 533.615,-144 539.615,-144 545.615,-150 545.615,-156 545.615,-156 545.615,-168 545.615,-168 545.615,-174 539.615,-180 533.615,-180"/>
<text text-anchor="middle" x="484.3716" y="-159" font-family="sans" font-size="10.00" fill="#000000">organise_minion_output</text>
</g>
<!-- 6&#45;&gt;1 -->
<g id="edge6" class="edge">
<title>6&#45;&gt;1</title>
<path fill="none" stroke="#c0c0c0" stroke-width="2" d="M448.7913,-143.8314C427.6137,-133.0173 400.8119,-119.3312 379.5327,-108.4652"/>
<polygon fill="#c0c0c0" stroke="#c0c0c0" stroke-width="2" points="380.9826,-105.2757 370.4848,-103.845 377.7991,-111.51 380.9826,-105.2757"/>
</g>
<!-- 7 -->
<g id="node8" class="node">
<title>7</title>
<path fill="none" stroke="#d8b456" stroke-width="2" stroke-dasharray="5,2" d="M370.0192,-252C370.0192,-252 316.724,-252 316.724,-252 310.724,-252 304.724,-246 304.724,-240 304.724,-240 304.724,-228 304.724,-228 304.724,-222 310.724,-216 316.724,-216 316.724,-216 370.0192,-216 370.0192,-216 376.0192,-216 382.0192,-222 382.0192,-228 382.0192,-228 382.0192,-240 382.0192,-240 382.0192,-246 376.0192,-252 370.0192,-252"/>
<text text-anchor="middle" x="343.3716" y="-236" font-family="sans" font-size="10.00" fill="#000000">artic_minion</text>
<text text-anchor="middle" x="343.3716" y="-226" font-family="sans" font-size="10.00" fill="#000000">gene: KCNS1</text>
</g>
<!-- 7&#45;&gt;2 -->
<g id="edge7" class="edge">
<title>7&#45;&gt;2</title>
<path fill="none" stroke="#c0c0c0" stroke-width="2" d="M343.3716,-215.8314C343.3716,-208.131 343.3716,-198.9743 343.3716,-190.4166"/>
<polygon fill="#c0c0c0" stroke="#c0c0c0" stroke-width="2" points="346.8717,-190.4132 343.3716,-180.4133 339.8717,-190.4133 346.8717,-190.4132"/>
</g>
<!-- 8 -->
<g id="node9" class="node">
<title>8</title>
<path fill="none" stroke="#d8b456" stroke-width="2" stroke-dasharray="5,2" d="M135.9058,-252C135.9058,-252 78.8374,-252 78.8374,-252 72.8374,-252 66.8374,-246 66.8374,-240 66.8374,-240 66.8374,-228 66.8374,-228 66.8374,-222 72.8374,-216 78.8374,-216 78.8374,-216 135.9058,-216 135.9058,-216 141.9058,-216 147.9058,-222 147.9058,-228 147.9058,-228 147.9058,-240 147.9058,-240 147.9058,-246 141.9058,-252 135.9058,-252"/>
<text text-anchor="middle" x="107.3716" y="-236" font-family="sans" font-size="10.00" fill="#000000">artic_minion</text>
<text text-anchor="middle" x="107.3716" y="-226" font-family="sans" font-size="10.00" fill="#000000">gene: PRIMA1</text>
</g>
<!-- 8&#45;&gt;3 -->
<g id="edge8" class="edge">
<title>8&#45;&gt;3</title>
<path fill="none" stroke="#c0c0c0" stroke-width="2" d="M95.7638,-215.8314C90.5738,-207.7079 84.3484,-197.9637 78.6291,-189.0118"/>
<polygon fill="#c0c0c0" stroke="#c0c0c0" stroke-width="2" points="81.469,-186.9559 73.1356,-180.4133 75.5701,-190.7246 81.469,-186.9559"/>
</g>
<!-- 9 -->
<g id="node10" class="node">
<title>9</title>
<path fill="none" stroke="#d8b456" stroke-width="2" stroke-dasharray="5,2" d="M237.2974,-252C237.2974,-252 191.4458,-252 191.4458,-252 185.4458,-252 179.4458,-246 179.4458,-240 179.4458,-240 179.4458,-228 179.4458,-228 179.4458,-222 185.4458,-216 191.4458,-216 191.4458,-216 237.2974,-216 237.2974,-216 243.2974,-216 249.2974,-222 249.2974,-228 249.2974,-228 249.2974,-240 249.2974,-240 249.2974,-246 243.2974,-252 237.2974,-252"/>
<text text-anchor="middle" x="214.3716" y="-236" font-family="sans" font-size="10.00" fill="#000000">artic_minion</text>
<text text-anchor="middle" x="214.3716" y="-226" font-family="sans" font-size="10.00" fill="#000000">gene: HSP4</text>
</g>
<!-- 9&#45;&gt;4 -->
<g id="edge9" class="edge">
<title>9&#45;&gt;4</title>
<path fill="none" stroke="#c0c0c0" stroke-width="2" d="M211.3435,-215.8314C210.0601,-208.131 208.534,-198.9743 207.1077,-190.4166"/>
<polygon fill="#c0c0c0" stroke="#c0c0c0" stroke-width="2" points="210.5369,-189.7018 205.4405,-180.4133 203.6322,-190.8526 210.5369,-189.7018"/>
</g>
<!-- 10 -->
<g id="node11" class="node">
<title>10</title>
<path fill="none" stroke="#d8b456" stroke-width="2" stroke-dasharray="5,2" d="M553.2828,-252C553.2828,-252 507.4604,-252 507.4604,-252 501.4604,-252 495.4604,-246 495.4604,-240 495.4604,-240 495.4604,-228 495.4604,-228 495.4604,-222 501.4604,-216 507.4604,-216 507.4604,-216 553.2828,-216 553.2828,-216 559.2828,-216 565.2828,-222 565.2828,-228 565.2828,-228 565.2828,-240 565.2828,-240 565.2828,-246 559.2828,-252 553.2828,-252"/>
<text text-anchor="middle" x="530.3716" y="-236" font-family="sans" font-size="10.00" fill="#000000">artic_minion</text>
<text text-anchor="middle" x="530.3716" y="-226" font-family="sans" font-size="10.00" fill="#000000">gene: GM9</text>
</g>
<!-- 10&#45;&gt;5 -->
<g id="edge10" class="edge">
<title>10&#45;&gt;5</title>
<path fill="none" stroke="#c0c0c0" stroke-width="2" d="M554.3441,-215.8314C566.1576,-206.8779 580.5688,-195.9558 593.315,-186.2955"/>
<polygon fill="#c0c0c0" stroke="#c0c0c0" stroke-width="2" points="595.5511,-188.9925 601.4067,-180.1628 591.3229,-183.4137 595.5511,-188.9925"/>
</g>
<!-- 11 -->
<g id="node12" class="node">
<title>11</title>
<path fill="none" stroke="#d8b456" stroke-width="2" stroke-dasharray="5,2" d="M463.2828,-252C463.2828,-252 417.4604,-252 417.4604,-252 411.4604,-252 405.4604,-246 405.4604,-240 405.4604,-240 405.4604,-228 405.4604,-228 405.4604,-222 411.4604,-216 417.4604,-216 417.4604,-216 463.2828,-216 463.2828,-216 469.2828,-216 475.2828,-222 475.2828,-228 475.2828,-228 475.2828,-240 475.2828,-240 475.2828,-246 469.2828,-252 463.2828,-252"/>
<text text-anchor="middle" x="440.3716" y="-236" font-family="sans" font-size="10.00" fill="#000000">artic_minion</text>
<text text-anchor="middle" x="440.3716" y="-226" font-family="sans" font-size="10.00" fill="#000000">gene: GM7</text>
</g>
<!-- 11&#45;&gt;6 -->
<g id="edge11" class="edge">
<title>11&#45;&gt;6</title>
<path fill="none" stroke="#c0c0c0" stroke-width="2" d="M451.4746,-215.8314C456.439,-207.7079 462.3937,-197.9637 467.8644,-189.0118"/>
<polygon fill="#c0c0c0" stroke="#c0c0c0" stroke-width="2" points="470.891,-190.7712 473.119,-180.4133 464.918,-187.121 470.891,-190.7712"/>
</g>
<!-- 12 -->
<g id="node13" class="node">
<title>12</title>
<path fill="none" stroke="#d85656" stroke-width="2" stroke-dasharray="5,2" d="M358.3716,-324C358.3716,-324 328.3716,-324 328.3716,-324 322.3716,-324 316.3716,-318 316.3716,-312 316.3716,-312 316.3716,-300 316.3716,-300 316.3716,-294 322.3716,-288 328.3716,-288 328.3716,-288 358.3716,-288 358.3716,-288 364.3716,-288 370.3716,-294 370.3716,-300 370.3716,-300 370.3716,-312 370.3716,-312 370.3716,-318 364.3716,-324 358.3716,-324"/>
<text text-anchor="middle" x="343.3716" y="-303" font-family="sans" font-size="10.00" fill="#000000">bin</text>
</g>
<!-- 12&#45;&gt;7 -->
<g id="edge12" class="edge">
<title>12&#45;&gt;7</title>
<path fill="none" stroke="#c0c0c0" stroke-width="2" d="M343.3716,-287.8314C343.3716,-280.131 343.3716,-270.9743 343.3716,-262.4166"/>
<polygon fill="#c0c0c0" stroke="#c0c0c0" stroke-width="2" points="346.8717,-262.4132 343.3716,-252.4133 339.8717,-262.4133 346.8717,-262.4132"/>
</g>
<!-- 12&#45;&gt;8 -->
<g id="edge15" class="edge">
<title>12&#45;&gt;8</title>
<path fill="none" stroke="#c0c0c0" stroke-width="2" d="M316.2994,-297.7407C277.6744,-285.9568 206.0689,-264.1111 157.5783,-249.3173"/>
<polygon fill="#c0c0c0" stroke="#c0c0c0" stroke-width="2" points="158.4898,-245.9362 147.9037,-246.3657 156.4471,-252.6315 158.4898,-245.9362"/>
</g>
<!-- 12&#45;&gt;9 -->
<g id="edge18" class="edge">
<title>12&#45;&gt;9</title>
<path fill="none" stroke="#c0c0c0" stroke-width="2" d="M316.329,-290.9064C298.7742,-281.1084 275.5544,-268.1486 255.7085,-257.0718"/>
<polygon fill="#c0c0c0" stroke="#c0c0c0" stroke-width="2" points="257.2977,-253.9506 246.86,-252.133 253.8861,-260.063 257.2977,-253.9506"/>
</g>
<!-- 12&#45;&gt;10 -->
<g id="edge21" class="edge">
<title>12&#45;&gt;10</title>
<path fill="none" stroke="#c0c0c0" stroke-width="2" d="M370.4246,-295.7059C398.8259,-284.8831 444.7706,-267.331 484.3716,-252 484.8114,-251.8297 485.2536,-251.6584 485.6978,-251.4863"/>
<polygon fill="#c0c0c0" stroke="#c0c0c0" stroke-width="2" points="487.168,-254.67 495.2207,-247.7849 484.632,-248.1455 487.168,-254.67"/>
</g>
<!-- 12&#45;&gt;11 -->
<g id="edge24" class="edge">
<title>12&#45;&gt;11</title>
<path fill="none" stroke="#c0c0c0" stroke-width="2" d="M367.8488,-287.8314C379.911,-278.8779 394.6255,-267.9558 407.6402,-258.2955"/>
<polygon fill="#c0c0c0" stroke="#c0c0c0" stroke-width="2" points="409.9586,-260.9335 415.9022,-252.1628 405.7864,-255.3127 409.9586,-260.9335"/>
</g>
<!-- 13 -->
<g id="node14" class="node">
<title>13</title>
<path fill="none" stroke="#70d856" stroke-width="2" stroke-dasharray="5,2" d="M413.7232,-612C413.7232,-612 309.0199,-612 309.0199,-612 303.0199,-612 297.0199,-606 297.0199,-600 297.0199,-600 297.0199,-588 297.0199,-588 297.0199,-582 303.0199,-576 309.0199,-576 309.0199,-576 413.7232,-576 413.7232,-576 419.7232,-576 425.7232,-582 425.7232,-588 425.7232,-588 425.7232,-600 425.7232,-600 425.7232,-606 419.7232,-612 413.7232,-612"/>
<text text-anchor="middle" x="361.3716" y="-596" font-family="sans" font-size="10.00" fill="#000000">gather</text>
<text text-anchor="middle" x="361.3716" y="-586" font-family="sans" font-size="10.00" fill="#000000">run_name: aging_mice_1</text>
</g>
<!-- 13&#45;&gt;7 -->
<g id="edge13" class="edge">
<title>13&#45;&gt;7</title>
<path fill="none" stroke="#c0c0c0" stroke-width="2" d="M383.1733,-575.9956C410.9419,-550.9031 455.3716,-502.5449 455.3716,-450 455.3716,-450 455.3716,-450 455.3716,-378 455.3716,-327.3429 411.6515,-283.7739 378.8427,-258.2104"/>
<polygon fill="#c0c0c0" stroke="#c0c0c0" stroke-width="2" points="380.8572,-255.3457 370.7699,-252.1058 376.6351,-260.9291 380.8572,-255.3457"/>
</g>
<!-- 13&#45;&gt;8 -->
<g id="edge16" class="edge">
<title>13&#45;&gt;8</title>
<path fill="none" stroke="#c0c0c0" stroke-width="2" d="M296.9555,-582.8949C244.3636,-572.8349 175.1519,-557.018 152.3716,-540 115.0006,-512.082 98.3716,-496.6476 98.3716,-450 98.3716,-450 98.3716,-450 98.3716,-378 98.3716,-337.7977 101.909,-291.4047 104.5484,-262.385"/>
<polygon fill="#c0c0c0" stroke="#c0c0c0" stroke-width="2" points="108.058,-262.4457 105.5068,-252.1626 101.0886,-261.7923 108.058,-262.4457"/>
</g>
<!-- 13&#45;&gt;9 -->
<g id="edge19" class="edge">
<title>13&#45;&gt;9</title>
<path fill="none" stroke="#c0c0c0" stroke-width="2" d="M296.8956,-581.5123C230.4085,-564.4518 136.3716,-526.7549 136.3716,-450 136.3716,-450 136.3716,-450 136.3716,-378 136.3716,-332.3933 166.9953,-287.4038 189.8658,-260.1636"/>
<polygon fill="#c0c0c0" stroke="#c0c0c0" stroke-width="2" points="192.7749,-262.1506 196.6722,-252.2986 187.4817,-257.5699 192.7749,-262.1506"/>
</g>
<!-- 13&#45;&gt;10 -->
<g id="edge22" class="edge">
<title>13&#45;&gt;10</title>
<path fill="none" stroke="#c0c0c0" stroke-width="2" d="M411.9169,-575.9547C462.0283,-554.4388 531.3716,-513.2403 531.3716,-450 531.3716,-450 531.3716,-450 531.3716,-378 531.3716,-337.875 530.9785,-291.4624 530.6853,-262.4173"/>
<polygon fill="#c0c0c0" stroke="#c0c0c0" stroke-width="2" points="534.1828,-262.1481 530.5788,-252.1851 527.1831,-262.221 534.1828,-262.1481"/>
</g>
<!-- 13&#45;&gt;11 -->
<g id="edge25" class="edge">
<title>13&#45;&gt;11</title>
<path fill="none" stroke="#c0c0c0" stroke-width="2" d="M395.7084,-575.8915C434.8194,-552.4995 493.3716,-507.8237 493.3716,-450 493.3716,-450 493.3716,-450 493.3716,-378 493.3716,-335.1582 472.4556,-289.3149 456.9027,-261.1484"/>
<polygon fill="#c0c0c0" stroke="#c0c0c0" stroke-width="2" points="459.8584,-259.2655 451.8718,-252.3038 453.7738,-262.7265 459.8584,-259.2655"/>
</g>
<!-- 14 -->
<g id="node15" class="node">
<title>14</title>
<path fill="none" stroke="#5682d8" stroke-width="2" stroke-dasharray="5,2" d="M262.2135,-324C262.2135,-324 192.5297,-324 192.5297,-324 186.5297,-324 180.5297,-318 180.5297,-312 180.5297,-312 180.5297,-300 180.5297,-300 180.5297,-294 186.5297,-288 192.5297,-288 192.5297,-288 262.2135,-288 262.2135,-288 268.2135,-288 274.2135,-294 274.2135,-300 274.2135,-300 274.2135,-312 274.2135,-312 274.2135,-318 268.2135,-324 262.2135,-324"/>
<text text-anchor="middle" x="227.3716" y="-303" font-family="sans" font-size="10.00" fill="#000000">nanopolish_index</text>
</g>
<!-- 13&#45;&gt;14 -->
<g id="edge29" class="edge">
<title>13&#45;&gt;14</title>
<path fill="none" stroke="#c0c0c0" stroke-width="2" d="M318.8393,-575.9581C278.1931,-556.1237 219.3775,-520.0119 193.3716,-468 171.4392,-424.1353 193.8568,-366.7631 211.2417,-333.3846"/>
<polygon fill="#c0c0c0" stroke="#c0c0c0" stroke-width="2" points="214.5109,-334.6976 216.1954,-324.2375 208.3556,-331.3641 214.5109,-334.6976"/>
</g>
<!-- 16 -->
<g id="node17" class="node">
<title>16</title>
<path fill="none" stroke="#d88556" stroke-width="2" stroke-dasharray="5,2" d="M394.9155,-540C394.9155,-540 327.8276,-540 327.8276,-540 321.8276,-540 315.8276,-534 315.8276,-528 315.8276,-528 315.8276,-516 315.8276,-516 315.8276,-510 321.8276,-504 327.8276,-504 327.8276,-504 394.9155,-504 394.9155,-504 400.9155,-504 406.9155,-510 406.9155,-516 406.9155,-516 406.9155,-528 406.9155,-528 406.9155,-534 400.9155,-540 394.9155,-540"/>
<text text-anchor="middle" x="361.3716" y="-519" font-family="sans" font-size="10.00" fill="#000000">demultiplex_qcat</text>
</g>
<!-- 13&#45;&gt;16 -->
<g id="edge32" class="edge">
<title>13&#45;&gt;16</title>
<path fill="none" stroke="#c0c0c0" stroke-width="2" d="M361.3716,-575.8314C361.3716,-568.131 361.3716,-558.9743 361.3716,-550.4166"/>
<polygon fill="#c0c0c0" stroke="#c0c0c0" stroke-width="2" points="364.8717,-550.4132 361.3716,-540.4133 357.8717,-550.4133 364.8717,-550.4132"/>
</g>
<!-- 14&#45;&gt;7 -->
<g id="edge14" class="edge">
<title>14&#45;&gt;7</title>
<path fill="none" stroke="#c0c0c0" stroke-width="2" d="M256.6433,-287.8314C271.4804,-278.6221 289.6731,-267.3301 305.5578,-257.4706"/>
<polygon fill="#c0c0c0" stroke="#c0c0c0" stroke-width="2" points="307.4586,-260.4102 314.1092,-252.1628 303.767,-254.4628 307.4586,-260.4102"/>
</g>
<!-- 14&#45;&gt;8 -->
<g id="edge17" class="edge">
<title>14&#45;&gt;8</title>
<path fill="none" stroke="#c0c0c0" stroke-width="2" d="M197.0905,-287.8314C181.7418,-278.6221 162.9217,-267.3301 146.4893,-257.4706"/>
<polygon fill="#c0c0c0" stroke="#c0c0c0" stroke-width="2" points="148.0187,-254.3066 137.643,-252.1628 144.4172,-260.3091 148.0187,-254.3066"/>
</g>
<!-- 14&#45;&gt;9 -->
<g id="edge20" class="edge">
<title>14&#45;&gt;9</title>
<path fill="none" stroke="#c0c0c0" stroke-width="2" d="M224.0911,-287.8314C222.7008,-280.131 221.0475,-270.9743 219.5024,-262.4166"/>
<polygon fill="#c0c0c0" stroke="#c0c0c0" stroke-width="2" points="222.9174,-261.6322 217.6962,-252.4133 216.0288,-262.8761 222.9174,-261.6322"/>
</g>
<!-- 14&#45;&gt;10 -->
<g id="edge23" class="edge">
<title>14&#45;&gt;10</title>
<path fill="none" stroke="#c0c0c0" stroke-width="2" d="M274.2914,-295.2728C285.1446,-292.8388 296.6529,-290.2956 307.3716,-288 385.8688,-271.1882 407.3738,-274.7108 484.3716,-252 484.824,-251.8666 485.2782,-251.7306 485.7339,-251.5921"/>
<polygon fill="#c0c0c0" stroke="#c0c0c0" stroke-width="2" points="487.0289,-254.8505 495.4271,-248.3913 484.834,-248.2035 487.0289,-254.8505"/>
</g>
<!-- 14&#45;&gt;11 -->
<g id="edge26" class="edge">
<title>14&#45;&gt;11</title>
<path fill="none" stroke="#c0c0c0" stroke-width="2" d="M274.525,-290.9429C307.3775,-280.3378 352.1637,-265.652 391.3716,-252 392.7891,-251.5064 394.2284,-251.0014 395.6805,-250.4884"/>
<polygon fill="#c0c0c0" stroke="#c0c0c0" stroke-width="2" points="397.1232,-253.6896 405.3596,-247.0254 394.7651,-247.0987 397.1232,-253.6896"/>
</g>
<!-- 15 -->
<g id="node16" class="node">
<title>15</title>
<path fill="none" stroke="#56d8c9" stroke-width="2" stroke-dasharray="5,2" d="M356.3716,-396C356.3716,-396 326.3716,-396 326.3716,-396 320.3716,-396 314.3716,-390 314.3716,-384 314.3716,-384 314.3716,-372 314.3716,-372 314.3716,-366 320.3716,-360 326.3716,-360 326.3716,-360 356.3716,-360 356.3716,-360 362.3716,-360 368.3716,-366 368.3716,-372 368.3716,-372 368.3716,-384 368.3716,-384 368.3716,-390 362.3716,-396 356.3716,-396"/>
<text text-anchor="middle" x="341.3716" y="-375" font-family="sans" font-size="10.00" fill="#000000">blastn</text>
</g>
<!-- 15&#45;&gt;12 -->
<g id="edge27" class="edge">
<title>15&#45;&gt;12</title>
<path fill="none" stroke="#c0c0c0" stroke-width="2" d="M341.8763,-359.8314C342.0902,-352.131 342.3445,-342.9743 342.5822,-334.4166"/>
<polygon fill="#c0c0c0" stroke="#c0c0c0" stroke-width="2" points="346.081,-334.5066 342.8601,-324.4133 339.0837,-334.3122 346.081,-334.5066"/>
</g>
<!-- 16&#45;&gt;12 -->
<g id="edge28" class="edge">
<title>16&#45;&gt;12</title>
<path fill="none" stroke="#c0c0c0" stroke-width="2" d="M377.7997,-503.989C385.6741,-494.1289 394.2695,-481.2441 398.3716,-468 403.1054,-452.7163 400.6343,-447.8392 398.3716,-432 393.6575,-399.0017 391.0505,-390.3973 377.3716,-360 373.1876,-350.7023 367.6178,-341.1108 362.1993,-332.6383"/>
<polygon fill="#c0c0c0" stroke="#c0c0c0" stroke-width="2" points="365.1049,-330.6868 356.6718,-324.2733 359.2647,-334.5459 365.1049,-330.6868"/>
</g>
<!-- 18 -->
<g id="node19" class="node">
<title>18</title>
<path fill="none" stroke="#56d86b" stroke-width="2" stroke-dasharray="5,2" d="M377.473,-468C377.473,-468 305.2702,-468 305.2702,-468 299.2702,-468 293.2702,-462 293.2702,-456 293.2702,-456 293.2702,-444 293.2702,-444 293.2702,-438 299.2702,-432 305.2702,-432 305.2702,-432 377.473,-432 377.473,-432 383.473,-432 389.473,-438 389.473,-444 389.473,-444 389.473,-456 389.473,-456 389.473,-462 383.473,-468 377.473,-468"/>
<text text-anchor="middle" x="341.3716" y="-452" font-family="sans" font-size="10.00" fill="#000000">fastq_to_fasta</text>
<text text-anchor="middle" x="341.3716" y="-442" font-family="sans" font-size="10.00" fill="#000000">barcode: sampleX</text>
</g>
<!-- 16&#45;&gt;18 -->
<g id="edge33" class="edge">
<title>16&#45;&gt;18</title>
<path fill="none" stroke="#c0c0c0" stroke-width="2" d="M356.3247,-503.8314C354.1622,-496.0463 351.5863,-486.7729 349.1868,-478.1347"/>
<polygon fill="#c0c0c0" stroke="#c0c0c0" stroke-width="2" points="352.5352,-477.1117 346.4864,-468.4133 345.7906,-478.9852 352.5352,-477.1117"/>
</g>
<!-- 17 -->
<g id="node18" class="node">
<title>17</title>
<path fill="none" stroke="#9fd856" stroke-width="2" stroke-dasharray="5,2" d="M262.5714,-468C262.5714,-468 214.1717,-468 214.1717,-468 208.1717,-468 202.1717,-462 202.1717,-456 202.1717,-456 202.1717,-444 202.1717,-444 202.1717,-438 208.1717,-432 214.1717,-432 214.1717,-432 262.5714,-432 262.5714,-432 268.5714,-432 274.5714,-438 274.5714,-444 274.5714,-444 274.5714,-456 274.5714,-456 274.5714,-462 268.5714,-468 262.5714,-468"/>
<text text-anchor="middle" x="238.3716" y="-447" font-family="sans" font-size="10.00" fill="#000000">makeblastdb</text>
</g>
<!-- 17&#45;&gt;15 -->
<g id="edge30" class="edge">
<title>17&#45;&gt;15</title>
<path fill="none" stroke="#c0c0c0" stroke-width="2" d="M264.3628,-431.8314C277.2932,-422.7927 293.0938,-411.7476 307.0099,-402.0198"/>
<polygon fill="#c0c0c0" stroke="#c0c0c0" stroke-width="2" points="309.1978,-404.7608 315.3886,-396.1628 305.1873,-399.0235 309.1978,-404.7608"/>
</g>
<!-- 18&#45;&gt;15 -->
<g id="edge31" class="edge">
<title>18&#45;&gt;15</title>
<path fill="none" stroke="#c0c0c0" stroke-width="2" d="M341.3716,-431.8314C341.3716,-424.131 341.3716,-414.9743 341.3716,-406.4166"/>
<polygon fill="#c0c0c0" stroke="#c0c0c0" stroke-width="2" points="344.8717,-406.4132 341.3716,-396.4133 337.8717,-406.4133 344.8717,-406.4132"/>
</g>
</g>
</svg>
