<?xml version="1.0" encoding="UTF-8" standalone="no"?>
<!DOCTYPE svg PUBLIC "-//W3C//DTD SVG 1.1//EN"
 "http://www.w3.org/Graphics/SVG/1.1/DTD/svg11.dtd">
<!-- Generated by graphviz version 2.40.1 (20161225.0304)
 -->
<!-- Title: snakemake_dag Pages: 1 -->
<svg width="1106pt" height="692pt"
 viewBox="0.00 0.00 1106.20 692.00" xmlns="http://www.w3.org/2000/svg" xmlns:xlink="http://www.w3.org/1999/xlink">
<g id="graph0" class="graph" transform="scale(1 1) rotate(0) translate(4 688)">
<title>snakemake_dag</title>
<polygon fill="#ffffff" stroke="transparent" points="-4,4 -4,-688 1102.1974,-688 1102.1974,4 -4,4"/>
<!-- 0 -->
<g id="node1" class="node">
<title>0</title>
<path fill="none" stroke="#56d882" stroke-width="2" d="M574.1974,-36C574.1974,-36 544.1974,-36 544.1974,-36 538.1974,-36 532.1974,-30 532.1974,-24 532.1974,-24 532.1974,-12 532.1974,-12 532.1974,-6 538.1974,0 544.1974,0 544.1974,0 574.1974,0 574.1974,0 580.1974,0 586.1974,-6 586.1974,-12 586.1974,-12 586.1974,-24 586.1974,-24 586.1974,-30 580.1974,-36 574.1974,-36"/>
<text text-anchor="middle" x="559.1974" y="-15" font-family="sans" font-size="10.00" fill="#000000">all</text>
</g>
<!-- 1 -->
<g id="node2" class="node">
<title>1</title>
<path fill="none" stroke="#d88556" stroke-width="2" d="M574.1974,-108C574.1974,-108 544.1974,-108 544.1974,-108 538.1974,-108 532.1974,-102 532.1974,-96 532.1974,-96 532.1974,-84 532.1974,-84 532.1974,-78 538.1974,-72 544.1974,-72 544.1974,-72 574.1974,-72 574.1974,-72 580.1974,-72 586.1974,-78 586.1974,-84 586.1974,-84 586.1974,-96 586.1974,-96 586.1974,-102 580.1974,-108 574.1974,-108"/>
<text text-anchor="middle" x="559.1974" y="-87" font-family="sans" font-size="10.00" fill="#000000">count</text>
</g>
<!-- 1&#45;&gt;0 -->
<g id="edge1" class="edge">
<title>1&#45;&gt;0</title>
<path fill="none" stroke="#c0c0c0" stroke-width="2" d="M559.1974,-71.8314C559.1974,-64.131 559.1974,-54.9743 559.1974,-46.4166"/>
<polygon fill="#c0c0c0" stroke="#c0c0c0" stroke-width="2" points="562.6975,-46.4132 559.1974,-36.4133 555.6975,-46.4133 562.6975,-46.4132"/>
</g>
<!-- 2 -->
<g id="node3" class="node">
<title>2</title>
<path fill="none" stroke="#56d8d8" stroke-width="2" d="M608.4408,-180C608.4408,-180 509.9539,-180 509.9539,-180 503.9539,-180 497.9539,-174 497.9539,-168 497.9539,-168 497.9539,-156 497.9539,-156 497.9539,-150 503.9539,-144 509.9539,-144 509.9539,-144 608.4408,-144 608.4408,-144 614.4408,-144 620.4408,-150 620.4408,-156 620.4408,-156 620.4408,-168 620.4408,-168 620.4408,-174 614.4408,-180 608.4408,-180"/>
<text text-anchor="middle" x="559.1974" y="-159" font-family="sans" font-size="10.00" fill="#000000">organise_minion_output</text>
</g>
<!-- 2&#45;&gt;1 -->
<g id="edge2" class="edge">
<title>2&#45;&gt;1</title>
<path fill="none" stroke="#c0c0c0" stroke-width="2" d="M559.1974,-143.8314C559.1974,-136.131 559.1974,-126.9743 559.1974,-118.4166"/>
<polygon fill="#c0c0c0" stroke="#c0c0c0" stroke-width="2" points="562.6975,-118.4132 559.1974,-108.4133 555.6975,-118.4133 562.6975,-118.4132"/>
</g>
<!-- 3 -->
<g id="node4" class="node">
<title>3</title>
<path fill="none" stroke="#56d8d8" stroke-width="2" d="M946.4408,-180C946.4408,-180 847.9539,-180 847.9539,-180 841.9539,-180 835.9539,-174 835.9539,-168 835.9539,-168 835.9539,-156 835.9539,-156 835.9539,-150 841.9539,-144 847.9539,-144 847.9539,-144 946.4408,-144 946.4408,-144 952.4408,-144 958.4408,-150 958.4408,-156 958.4408,-156 958.4408,-168 958.4408,-168 958.4408,-174 952.4408,-180 946.4408,-180"/>
<text text-anchor="middle" x="897.1974" y="-159" font-family="sans" font-size="10.00" fill="#000000">organise_minion_output</text>
</g>
<!-- 3&#45;&gt;1 -->
<g id="edge3" class="edge">
<title>3&#45;&gt;1</title>
<path fill="none" stroke="#c0c0c0" stroke-width="2" d="M835.596,-148.8778C765.7212,-133.9932 654.0221,-110.1994 596.3474,-97.9136"/>
<polygon fill="#c0c0c0" stroke="#c0c0c0" stroke-width="2" points="597.0735,-94.4898 586.5638,-95.8295 595.6151,-101.3362 597.0735,-94.4898"/>
</g>
<!-- 4 -->
<g id="node5" class="node">
<title>4</title>
<path fill="none" stroke="#56d8d8" stroke-width="2" d="M282.4408,-180C282.4408,-180 183.9539,-180 183.9539,-180 177.9539,-180 171.9539,-174 171.9539,-168 171.9539,-168 171.9539,-156 171.9539,-156 171.9539,-150 177.9539,-144 183.9539,-144 183.9539,-144 282.4408,-144 282.4408,-144 288.4408,-144 294.4408,-150 294.4408,-156 294.4408,-156 294.4408,-168 294.4408,-168 294.4408,-174 288.4408,-180 282.4408,-180"/>
<text text-anchor="middle" x="233.1974" y="-159" font-family="sans" font-size="10.00" fill="#000000">organise_minion_output</text>
</g>
<!-- 4&#45;&gt;1 -->
<g id="edge4" class="edge">
<title>4&#45;&gt;1</title>
<path fill="none" stroke="#c0c0c0" stroke-width="2" d="M294.7738,-148.1112C300.9963,-146.7179 307.2216,-145.3281 313.1974,-144 387.1618,-127.5611 473.7079,-108.6349 521.9132,-98.1208"/>
<polygon fill="#c0c0c0" stroke="#c0c0c0" stroke-width="2" points="522.8602,-101.4966 531.885,-95.9466 521.3689,-94.6573 522.8602,-101.4966"/>
</g>
<!-- 5 -->
<g id="node6" class="node">
<title>5</title>
<path fill="none" stroke="#56d8d8" stroke-width="2" d="M763.4408,-180C763.4408,-180 664.9539,-180 664.9539,-180 658.9539,-180 652.9539,-174 652.9539,-168 652.9539,-168 652.9539,-156 652.9539,-156 652.9539,-150 658.9539,-144 664.9539,-144 664.9539,-144 763.4408,-144 763.4408,-144 769.4408,-144 775.4408,-150 775.4408,-156 775.4408,-156 775.4408,-168 775.4408,-168 775.4408,-174 769.4408,-180 763.4408,-180"/>
<text text-anchor="middle" x="714.1974" y="-159" font-family="sans" font-size="10.00" fill="#000000">organise_minion_output</text>
</g>
<!-- 5&#45;&gt;1 -->
<g id="edge5" class="edge">
<title>5&#45;&gt;1</title>
<path fill="none" stroke="#c0c0c0" stroke-width="2" d="M675.0843,-143.8314C650.6991,-132.504 619.5304,-118.0257 595.6606,-106.9378"/>
<polygon fill="#c0c0c0" stroke="#c0c0c0" stroke-width="2" points="597.1175,-103.7554 586.5737,-102.7168 594.1685,-110.1039 597.1175,-103.7554"/>
</g>
<!-- 6 -->
<g id="node7" class="node">
<title>6</title>
<path fill="none" stroke="#56d8d8" stroke-width="2" d="M432.4408,-180C432.4408,-180 333.9539,-180 333.9539,-180 327.9539,-180 321.9539,-174 321.9539,-168 321.9539,-168 321.9539,-156 321.9539,-156 321.9539,-150 327.9539,-144 333.9539,-144 333.9539,-144 432.4408,-144 432.4408,-144 438.4408,-144 444.4408,-150 444.4408,-156 444.4408,-156 444.4408,-168 444.4408,-168 444.4408,-174 438.4408,-180 432.4408,-180"/>
<text text-anchor="middle" x="383.1974" y="-159" font-family="sans" font-size="10.00" fill="#000000">organise_minion_output</text>
</g>
<!-- 6&#45;&gt;1 -->
<g id="edge6" class="edge">
<title>6&#45;&gt;1</title>
<path fill="none" stroke="#c0c0c0" stroke-width="2" d="M427.6096,-143.8314C457.0326,-131.7947 495.153,-116.2 522.7844,-104.8962"/>
<polygon fill="#c0c0c0" stroke="#c0c0c0" stroke-width="2" points="524.1588,-108.1156 532.0891,-101.0898 521.5084,-101.6367 524.1588,-108.1156"/>
</g>
<!-- 7 -->
<g id="node8" class="node">
<title>7</title>
<path fill="none" stroke="#d85656" stroke-width="2" d="M582.1085,-252C582.1085,-252 536.2862,-252 536.2862,-252 530.2862,-252 524.2862,-246 524.2862,-240 524.2862,-240 524.2862,-228 524.2862,-228 524.2862,-222 530.2862,-216 536.2862,-216 536.2862,-216 582.1085,-216 582.1085,-216 588.1085,-216 594.1085,-222 594.1085,-228 594.1085,-228 594.1085,-240 594.1085,-240 594.1085,-246 588.1085,-252 582.1085,-252"/>
<text text-anchor="middle" x="559.1974" y="-231" font-family="sans" font-size="10.00" fill="#000000">artic_minion</text>
</g>
<!-- 7&#45;&gt;2 -->
<g id="edge7" class="edge">
<title>7&#45;&gt;2</title>
<path fill="none" stroke="#c0c0c0" stroke-width="2" d="M559.1974,-215.8314C559.1974,-208.131 559.1974,-198.9743 559.1974,-190.4166"/>
<polygon fill="#c0c0c0" stroke="#c0c0c0" stroke-width="2" points="562.6975,-190.4132 559.1974,-180.4133 555.6975,-190.4133 562.6975,-190.4132"/>
</g>
<!-- 8 -->
<g id="node9" class="node">
<title>8</title>
<path fill="none" stroke="#d85656" stroke-width="2" d="M962.1085,-252C962.1085,-252 916.2862,-252 916.2862,-252 910.2862,-252 904.2862,-246 904.2862,-240 904.2862,-240 904.2862,-228 904.2862,-228 904.2862,-222 910.2862,-216 916.2862,-216 916.2862,-216 962.1085,-216 962.1085,-216 968.1085,-216 974.1085,-222 974.1085,-228 974.1085,-228 974.1085,-240 974.1085,-240 974.1085,-246 968.1085,-252 962.1085,-252"/>
<text text-anchor="middle" x="939.1974" y="-231" font-family="sans" font-size="10.00" fill="#000000">artic_minion</text>
</g>
<!-- 8&#45;&gt;3 -->
<g id="edge8" class="edge">
<title>8&#45;&gt;3</title>
<path fill="none" stroke="#c0c0c0" stroke-width="2" d="M928.599,-215.8314C923.9096,-207.7925 918.2945,-198.1666 913.1176,-189.2918"/>
<polygon fill="#c0c0c0" stroke="#c0c0c0" stroke-width="2" points="916.0004,-187.2875 907.9384,-180.4133 909.954,-190.8146 916.0004,-187.2875"/>
</g>
<!-- 9 -->
<g id="node10" class="node">
<title>9</title>
<path fill="none" stroke="#d85656" stroke-width="2" d="M229.1085,-252C229.1085,-252 183.2862,-252 183.2862,-252 177.2862,-252 171.2862,-246 171.2862,-240 171.2862,-240 171.2862,-228 171.2862,-228 171.2862,-222 177.2862,-216 183.2862,-216 183.2862,-216 229.1085,-216 229.1085,-216 235.1085,-216 241.1085,-222 241.1085,-228 241.1085,-228 241.1085,-240 241.1085,-240 241.1085,-246 235.1085,-252 229.1085,-252"/>
<text text-anchor="middle" x="206.1974" y="-231" font-family="sans" font-size="10.00" fill="#000000">artic_minion</text>
</g>
<!-- 9&#45;&gt;4 -->
<g id="edge9" class="edge">
<title>9&#45;&gt;4</title>
<path fill="none" stroke="#c0c0c0" stroke-width="2" d="M213.0106,-215.8314C215.9617,-207.9617 219.4832,-198.5712 222.7524,-189.8533"/>
<polygon fill="#c0c0c0" stroke="#c0c0c0" stroke-width="2" points="226.0582,-191.0055 226.2924,-180.4133 219.5039,-188.5476 226.0582,-191.0055"/>
</g>
<!-- 10 -->
<g id="node11" class="node">
<title>10</title>
<path fill="none" stroke="#d85656" stroke-width="2" d="M750.1085,-252C750.1085,-252 704.2862,-252 704.2862,-252 698.2862,-252 692.2862,-246 692.2862,-240 692.2862,-240 692.2862,-228 692.2862,-228 692.2862,-222 698.2862,-216 704.2862,-216 704.2862,-216 750.1085,-216 750.1085,-216 756.1085,-216 762.1085,-222 762.1085,-228 762.1085,-228 762.1085,-240 762.1085,-240 762.1085,-246 756.1085,-252 750.1085,-252"/>
<text text-anchor="middle" x="727.1974" y="-231" font-family="sans" font-size="10.00" fill="#000000">artic_minion</text>
</g>
<!-- 10&#45;&gt;5 -->
<g id="edge10" class="edge">
<title>10&#45;&gt;5</title>
<path fill="none" stroke="#c0c0c0" stroke-width="2" d="M723.9169,-215.8314C722.5266,-208.131 720.8733,-198.9743 719.3281,-190.4166"/>
<polygon fill="#c0c0c0" stroke="#c0c0c0" stroke-width="2" points="722.7432,-189.6322 717.522,-180.4133 715.8546,-190.8761 722.7432,-189.6322"/>
</g>
<!-- 11 -->
<g id="node12" class="node">
<title>11</title>
<path fill="none" stroke="#d85656" stroke-width="2" d="M388.1085,-252C388.1085,-252 342.2862,-252 342.2862,-252 336.2862,-252 330.2862,-246 330.2862,-240 330.2862,-240 330.2862,-228 330.2862,-228 330.2862,-222 336.2862,-216 342.2862,-216 342.2862,-216 388.1085,-216 388.1085,-216 394.1085,-216 400.1085,-222 400.1085,-228 400.1085,-228 400.1085,-240 400.1085,-240 400.1085,-246 394.1085,-252 388.1085,-252"/>
<text text-anchor="middle" x="365.1974" y="-231" font-family="sans" font-size="10.00" fill="#000000">artic_minion</text>
</g>
<!-- 11&#45;&gt;6 -->
<g id="edge11" class="edge">
<title>11&#45;&gt;6</title>
<path fill="none" stroke="#c0c0c0" stroke-width="2" d="M369.7395,-215.8314C371.6858,-208.0463 374.0041,-198.7729 376.1637,-190.1347"/>
<polygon fill="#c0c0c0" stroke="#c0c0c0" stroke-width="2" points="379.5641,-190.9636 378.594,-180.4133 372.7731,-189.2658 379.5641,-190.9636"/>
</g>
<!-- 12 -->
<g id="node13" class="node">
<title>12</title>
<path fill="none" stroke="#56a9d8" stroke-width="2" d="M537.2199,-324C537.2199,-324 451.1748,-324 451.1748,-324 445.1748,-324 439.1748,-318 439.1748,-312 439.1748,-312 439.1748,-300 439.1748,-300 439.1748,-294 445.1748,-288 451.1748,-288 451.1748,-288 537.2199,-288 537.2199,-288 543.2199,-288 549.2199,-294 549.2199,-300 549.2199,-300 549.2199,-312 549.2199,-312 549.2199,-318 543.2199,-324 537.2199,-324"/>
<text text-anchor="middle" x="494.1974" y="-308" font-family="sans" font-size="10.00" fill="#000000">double_check_length</text>
<text text-anchor="middle" x="494.1974" y="-298" font-family="sans" font-size="10.00" fill="#000000">gene: GM9</text>
</g>
<!-- 12&#45;&gt;7 -->
<g id="edge12" class="edge">
<title>12&#45;&gt;7</title>
<path fill="none" stroke="#c0c0c0" stroke-width="2" d="M510.5996,-287.8314C518.2389,-279.3694 527.4657,-269.1489 535.818,-259.8971"/>
<polygon fill="#c0c0c0" stroke="#c0c0c0" stroke-width="2" points="538.4711,-262.1813 542.5743,-252.4133 533.2753,-257.4906 538.4711,-262.1813"/>
</g>
<!-- 13 -->
<g id="node14" class="node">
<title>13</title>
<path fill="none" stroke="#80d856" stroke-width="2" d="M499.549,-684C499.549,-684 394.8457,-684 394.8457,-684 388.8457,-684 382.8457,-678 382.8457,-672 382.8457,-672 382.8457,-660 382.8457,-660 382.8457,-654 388.8457,-648 394.8457,-648 394.8457,-648 499.549,-648 499.549,-648 505.549,-648 511.549,-654 511.549,-660 511.549,-660 511.549,-672 511.549,-672 511.549,-678 505.549,-684 499.549,-684"/>
<text text-anchor="middle" x="447.1974" y="-668" font-family="sans" font-size="10.00" fill="#000000">gather</text>
<text text-anchor="middle" x="447.1974" y="-658" font-family="sans" font-size="10.00" fill="#000000">run_name: aging_mice_1</text>
</g>
<!-- 13&#45;&gt;7 -->
<g id="edge13" class="edge">
<title>13&#45;&gt;7</title>
<path fill="none" stroke="#c0c0c0" stroke-width="2" d="M399.029,-647.9323C350.3269,-626.1679 282.1974,-584.5443 282.1974,-522 282.1974,-522 282.1974,-522 282.1974,-378 282.1974,-337.1184 272.2646,-316.8826 301.1974,-288 316.1572,-273.066 443.9168,-251.5599 513.8596,-240.7476"/>
<polygon fill="#c0c0c0" stroke="#c0c0c0" stroke-width="2" points="514.797,-244.1449 524.1509,-239.1694 513.7359,-237.2258 514.797,-244.1449"/>
</g>
<!-- 13&#45;&gt;8 -->
<g id="edge16" class="edge">
<title>13&#45;&gt;8</title>
<path fill="none" stroke="#c0c0c0" stroke-width="2" d="M511.9736,-664.4919C637.4788,-660.776 908.9344,-648.641 994.1974,-612 1050.358,-587.8654 1098.1974,-583.1269 1098.1974,-522 1098.1974,-522 1098.1974,-522 1098.1974,-378 1098.1974,-315.9814 1030.917,-273.7155 983.8877,-251.7471"/>
<polygon fill="#c0c0c0" stroke="#c0c0c0" stroke-width="2" points="985.0385,-248.4264 974.4846,-247.4959 982.1547,-254.8048 985.0385,-248.4264"/>
</g>
<!-- 13&#45;&gt;9 -->
<g id="edge21" class="edge">
<title>13&#45;&gt;9</title>
<path fill="none" stroke="#c0c0c0" stroke-width="2" d="M382.4905,-658.7335C259.0708,-643.0648 2.1974,-600.9682 2.1974,-522 2.1974,-522 2.1974,-522 2.1974,-378 2.1974,-337.1184 -6.5921,-317.9843 21.1974,-288 40.1479,-267.5527 112.8205,-250.8436 161.2426,-241.6705"/>
<polygon fill="#c0c0c0" stroke="#c0c0c0" stroke-width="2" points="161.9846,-245.0927 171.1793,-239.8288 160.7089,-238.2099 161.9846,-245.0927"/>
</g>
<!-- 13&#45;&gt;10 -->
<g id="edge24" class="edge">
<title>13&#45;&gt;10</title>
<path fill="none" stroke="#c0c0c0" stroke-width="2" d="M511.6405,-664.4329C669.0259,-658.8643 1060.1974,-633.7803 1060.1974,-522 1060.1974,-522 1060.1974,-522 1060.1974,-378 1060.1974,-330.6526 1042.2824,-314.7234 1003.1974,-288 966.2502,-262.7383 840.6651,-245.9635 772.3509,-238.4761"/>
<polygon fill="#c0c0c0" stroke="#c0c0c0" stroke-width="2" points="772.6194,-234.9849 762.3027,-237.3965 771.8716,-241.9448 772.6194,-234.9849"/>
</g>
<!-- 13&#45;&gt;11 -->
<g id="edge28" class="edge">
<title>13&#45;&gt;11</title>
<path fill="none" stroke="#c0c0c0" stroke-width="2" d="M382.8388,-660.753C300.4433,-650.113 168.1974,-618.0715 168.1974,-522 168.1974,-522 168.1974,-522 168.1974,-378 168.1974,-303.1111 262.1308,-262.985 320.2716,-245.3212"/>
<polygon fill="#c0c0c0" stroke="#c0c0c0" stroke-width="2" points="321.3645,-248.6482 329.9777,-242.4787 319.3971,-241.9304 321.3645,-248.6482"/>
</g>
<!-- 15 -->
<g id="node16" class="node">
<title>15</title>
<path fill="none" stroke="#d8ac56" stroke-width="2" d="M687.0393,-324C687.0393,-324 617.3554,-324 617.3554,-324 611.3554,-324 605.3554,-318 605.3554,-312 605.3554,-312 605.3554,-300 605.3554,-300 605.3554,-294 611.3554,-288 617.3554,-288 617.3554,-288 687.0393,-288 687.0393,-288 693.0393,-288 699.0393,-294 699.0393,-300 699.0393,-300 699.0393,-312 699.0393,-312 699.0393,-318 693.0393,-324 687.0393,-324"/>
<text text-anchor="middle" x="652.1974" y="-303" font-family="sans" font-size="10.00" fill="#000000">nanopolish_index</text>
</g>
<!-- 13&#45;&gt;15 -->
<g id="edge35" class="edge">
<title>13&#45;&gt;15</title>
<path fill="none" stroke="#c0c0c0" stroke-width="2" d="M511.7793,-649.8861C571.8688,-630.5633 652.1974,-591.698 652.1974,-522 652.1974,-522 652.1974,-522 652.1974,-450 652.1974,-409.876 652.1974,-363.4631 652.1974,-334.4177"/>
<polygon fill="#c0c0c0" stroke="#c0c0c0" stroke-width="2" points="655.6974,-334.1853 652.1974,-324.1854 648.6974,-334.1854 655.6974,-334.1853"/>
</g>
<!-- 20 -->
<g id="node21" class="node">
<title>20</title>
<path fill="none" stroke="#d6d856" stroke-width="2" d="M480.7413,-612C480.7413,-612 413.6534,-612 413.6534,-612 407.6534,-612 401.6534,-606 401.6534,-600 401.6534,-600 401.6534,-588 401.6534,-588 401.6534,-582 407.6534,-576 413.6534,-576 413.6534,-576 480.7413,-576 480.7413,-576 486.7413,-576 492.7413,-582 492.7413,-588 492.7413,-588 492.7413,-600 492.7413,-600 492.7413,-606 486.7413,-612 480.7413,-612"/>
<text text-anchor="middle" x="447.1974" y="-591" font-family="sans" font-size="10.00" fill="#000000">demultiplex_qcat</text>
</g>
<!-- 13&#45;&gt;20 -->
<g id="edge40" class="edge">
<title>13&#45;&gt;20</title>
<path fill="none" stroke="#c0c0c0" stroke-width="2" d="M447.1974,-647.8314C447.1974,-640.131 447.1974,-630.9743 447.1974,-622.4166"/>
<polygon fill="#c0c0c0" stroke="#c0c0c0" stroke-width="2" points="450.6975,-622.4132 447.1974,-612.4133 443.6975,-622.4133 450.6975,-622.4132"/>
</g>
<!-- 14 -->
<g id="node15" class="node">
<title>14</title>
<path fill="none" stroke="#afd856" stroke-width="2" d="M509.1974,-396C509.1974,-396 479.1974,-396 479.1974,-396 473.1974,-396 467.1974,-390 467.1974,-384 467.1974,-384 467.1974,-372 467.1974,-372 467.1974,-366 473.1974,-360 479.1974,-360 479.1974,-360 509.1974,-360 509.1974,-360 515.1974,-360 521.1974,-366 521.1974,-372 521.1974,-372 521.1974,-384 521.1974,-384 521.1974,-390 515.1974,-396 509.1974,-396"/>
<text text-anchor="middle" x="494.1974" y="-375" font-family="sans" font-size="10.00" fill="#000000">bin</text>
</g>
<!-- 14&#45;&gt;7 -->
<g id="edge14" class="edge">
<title>14&#45;&gt;7</title>
<path fill="none" stroke="#c0c0c0" stroke-width="2" d="M521.2348,-362.9636C535.008,-353.6971 550.4484,-340.4373 558.1974,-324 567.2207,-304.8593 566.9773,-280.7843 564.7463,-262.3515"/>
<polygon fill="#c0c0c0" stroke="#c0c0c0" stroke-width="2" points="568.1757,-261.6149 563.258,-252.2305 561.2501,-262.6333 568.1757,-261.6149"/>
</g>
<!-- 14&#45;&gt;8 -->
<g id="edge17" class="edge">
<title>14&#45;&gt;8</title>
<path fill="none" stroke="#c0c0c0" stroke-width="2" d="M521.3272,-377.1977C622.0894,-373.9431 970.6969,-360.1308 1003.1974,-324 1021.7785,-303.3433 998.8153,-277.2337 975.3877,-258.4637"/>
<polygon fill="#c0c0c0" stroke="#c0c0c0" stroke-width="2" points="977.2157,-255.4551 967.149,-252.1517 972.9585,-261.0118 977.2157,-255.4551"/>
</g>
<!-- 14&#45;&gt;9 -->
<g id="edge20" class="edge">
<title>14&#45;&gt;9</title>
<path fill="none" stroke="#c0c0c0" stroke-width="2" d="M467.0777,-375.5446C426.3401,-370.8506 348.0723,-357.8591 291.1974,-324 264.0505,-307.8388 240.0533,-280.5623 224.5396,-260.2645"/>
<polygon fill="#c0c0c0" stroke="#c0c0c0" stroke-width="2" points="227.2026,-257.9801 218.4259,-252.0454 221.586,-262.158 227.2026,-257.9801"/>
</g>
<!-- 14&#45;&gt;10 -->
<g id="edge26" class="edge">
<title>14&#45;&gt;10</title>
<path fill="none" stroke="#c0c0c0" stroke-width="2" d="M521.2405,-374.7463C572.8227,-367.9878 682.4348,-350.7906 708.1974,-324 723.8665,-307.7055 728.0164,-281.9124 728.5952,-262.1077"/>
<polygon fill="#c0c0c0" stroke="#c0c0c0" stroke-width="2" points="732.0951,-262.1042 728.6075,-252.0999 725.0951,-262.0956 732.0951,-262.1042"/>
</g>
<!-- 14&#45;&gt;11 -->
<g id="edge29" class="edge">
<title>14&#45;&gt;11</title>
<path fill="none" stroke="#c0c0c0" stroke-width="2" d="M467.0726,-374.4439C418.83,-367.5025 321.2798,-350.4726 301.1974,-324 291.5272,-311.2529 294.4552,-302.5101 301.1974,-288 306.6112,-276.3486 315.9143,-266.3063 325.7761,-258.1507"/>
<polygon fill="#c0c0c0" stroke="#c0c0c0" stroke-width="2" points="327.9517,-260.8929 333.7413,-252.0198 323.682,-255.3458 327.9517,-260.8929"/>
</g>
<!-- 14&#45;&gt;12 -->
<g id="edge32" class="edge">
<title>14&#45;&gt;12</title>
<path fill="none" stroke="#c0c0c0" stroke-width="2" d="M494.1974,-359.8314C494.1974,-352.131 494.1974,-342.9743 494.1974,-334.4166"/>
<polygon fill="#c0c0c0" stroke="#c0c0c0" stroke-width="2" points="497.6975,-334.4132 494.1974,-324.4133 490.6975,-334.4133 497.6975,-334.4132"/>
</g>
<!-- 16 -->
<g id="node17" class="node">
<title>16</title>
<path fill="none" stroke="#56a9d8" stroke-width="2" d="M982.2199,-324C982.2199,-324 896.1748,-324 896.1748,-324 890.1748,-324 884.1748,-318 884.1748,-312 884.1748,-312 884.1748,-300 884.1748,-300 884.1748,-294 890.1748,-288 896.1748,-288 896.1748,-288 982.2199,-288 982.2199,-288 988.2199,-288 994.2199,-294 994.2199,-300 994.2199,-300 994.2199,-312 994.2199,-312 994.2199,-318 988.2199,-324 982.2199,-324"/>
<text text-anchor="middle" x="939.1974" y="-308" font-family="sans" font-size="10.00" fill="#000000">double_check_length</text>
<text text-anchor="middle" x="939.1974" y="-298" font-family="sans" font-size="10.00" fill="#000000">gene: GM7</text>
</g>
<!-- 14&#45;&gt;16 -->
<g id="edge36" class="edge">
<title>14&#45;&gt;16</title>
<path fill="none" stroke="#c0c0c0" stroke-width="2" d="M521.5928,-375.3333C584.3939,-368.9538 743.4096,-351.2831 874.1974,-324 874.2976,-323.9791 874.398,-323.9581 874.4985,-323.937"/>
<polygon fill="#c0c0c0" stroke="#c0c0c0" stroke-width="2" points="875.0052,-327.4104 883.9976,-321.8079 873.4742,-320.5799 875.0052,-327.4104"/>
</g>
<!-- 17 -->
<g id="node18" class="node">
<title>17</title>
<path fill="none" stroke="#56a9d8" stroke-width="2" d="M128.2199,-324C128.2199,-324 42.1748,-324 42.1748,-324 36.1748,-324 30.1748,-318 30.1748,-312 30.1748,-312 30.1748,-300 30.1748,-300 30.1748,-294 36.1748,-288 42.1748,-288 42.1748,-288 128.2199,-288 128.2199,-288 134.2199,-288 140.2199,-294 140.2199,-300 140.2199,-300 140.2199,-312 140.2199,-312 140.2199,-318 134.2199,-324 128.2199,-324"/>
<text text-anchor="middle" x="85.1974" y="-308" font-family="sans" font-size="10.00" fill="#000000">double_check_length</text>
<text text-anchor="middle" x="85.1974" y="-298" font-family="sans" font-size="10.00" fill="#000000">gene: HSP4</text>
</g>
<!-- 14&#45;&gt;17 -->
<g id="edge37" class="edge">
<title>14&#45;&gt;17</title>
<path fill="none" stroke="#c0c0c0" stroke-width="2" d="M467.045,-373.2201C403.0728,-361.9585 241.4303,-333.5031 150.2906,-317.459"/>
<polygon fill="#c0c0c0" stroke="#c0c0c0" stroke-width="2" points="150.8023,-313.9953 140.347,-315.7085 149.5887,-320.8893 150.8023,-313.9953"/>
</g>
<!-- 18 -->
<g id="node19" class="node">
<title>18</title>
<path fill="none" stroke="#56a9d8" stroke-width="2" d="M853.2199,-324C853.2199,-324 767.1748,-324 767.1748,-324 761.1748,-324 755.1748,-318 755.1748,-312 755.1748,-312 755.1748,-300 755.1748,-300 755.1748,-294 761.1748,-288 767.1748,-288 767.1748,-288 853.2199,-288 853.2199,-288 859.2199,-288 865.2199,-294 865.2199,-300 865.2199,-300 865.2199,-312 865.2199,-312 865.2199,-318 859.2199,-324 853.2199,-324"/>
<text text-anchor="middle" x="810.1974" y="-308" font-family="sans" font-size="10.00" fill="#000000">double_check_length</text>
<text text-anchor="middle" x="810.1974" y="-298" font-family="sans" font-size="10.00" fill="#000000">gene: PRIMA1</text>
</g>
<!-- 14&#45;&gt;18 -->
<g id="edge38" class="edge">
<title>14&#45;&gt;18</title>
<path fill="none" stroke="#c0c0c0" stroke-width="2" d="M521.3246,-372.4394C566.8802,-363.0185 661.5877,-343.0781 741.1974,-324 742.4502,-323.6998 743.7152,-323.3942 744.9893,-323.0842"/>
<polygon fill="#c0c0c0" stroke="#c0c0c0" stroke-width="2" points="746.0173,-326.4355 754.8846,-320.637 744.3367,-319.6402 746.0173,-326.4355"/>
</g>
<!-- 19 -->
<g id="node20" class="node">
<title>19</title>
<path fill="none" stroke="#56a9d8" stroke-width="2" d="M408.2199,-324C408.2199,-324 322.1748,-324 322.1748,-324 316.1748,-324 310.1748,-318 310.1748,-312 310.1748,-312 310.1748,-300 310.1748,-300 310.1748,-294 316.1748,-288 322.1748,-288 322.1748,-288 408.2199,-288 408.2199,-288 414.2199,-288 420.2199,-294 420.2199,-300 420.2199,-300 420.2199,-312 420.2199,-312 420.2199,-318 414.2199,-324 408.2199,-324"/>
<text text-anchor="middle" x="365.1974" y="-308" font-family="sans" font-size="10.00" fill="#000000">double_check_length</text>
<text text-anchor="middle" x="365.1974" y="-298" font-family="sans" font-size="10.00" fill="#000000">gene: KCNS1</text>
</g>
<!-- 14&#45;&gt;19 -->
<g id="edge39" class="edge">
<title>14&#45;&gt;19</title>
<path fill="none" stroke="#c0c0c0" stroke-width="2" d="M467.1547,-362.9064C449.6,-353.1084 426.3802,-340.1486 406.5343,-329.0718"/>
<polygon fill="#c0c0c0" stroke="#c0c0c0" stroke-width="2" points="408.1235,-325.9506 397.6857,-324.133 404.7119,-332.063 408.1235,-325.9506"/>
</g>
<!-- 15&#45;&gt;7 -->
<g id="edge15" class="edge">
<title>15&#45;&gt;7</title>
<path fill="none" stroke="#c0c0c0" stroke-width="2" d="M628.7295,-287.8314C617.1647,-278.8779 603.057,-267.9558 590.579,-258.2955"/>
<polygon fill="#c0c0c0" stroke="#c0c0c0" stroke-width="2" points="592.7075,-255.5171 582.6577,-252.1628 588.4223,-261.0521 592.7075,-255.5171"/>
</g>
<!-- 15&#45;&gt;8 -->
<g id="edge18" class="edge">
<title>15&#45;&gt;8</title>
<path fill="none" stroke="#c0c0c0" stroke-width="2" d="M699.2682,-294.1913C753.2006,-280.6612 840.9554,-258.6461 894.0623,-245.3231"/>
<polygon fill="#c0c0c0" stroke="#c0c0c0" stroke-width="2" points="895.0325,-248.6882 903.8803,-242.86 893.3291,-241.8986 895.0325,-248.6882"/>
</g>
<!-- 15&#45;&gt;9 -->
<g id="edge23" class="edge">
<title>15&#45;&gt;9</title>
<path fill="none" stroke="#c0c0c0" stroke-width="2" d="M604.9239,-296.5797C589.9975,-293.7042 573.4275,-290.6139 558.1974,-288 453.1911,-269.9779 426.4943,-268.2378 321.1974,-252 298.1122,-248.4401 272.4295,-244.4253 251.201,-241.0922"/>
<polygon fill="#c0c0c0" stroke="#c0c0c0" stroke-width="2" points="251.5906,-237.6106 241.1684,-239.5157 250.5038,-244.5257 251.5906,-237.6106"/>
</g>
<!-- 15&#45;&gt;10 -->
<g id="edge27" class="edge">
<title>15&#45;&gt;10</title>
<path fill="none" stroke="#c0c0c0" stroke-width="2" d="M671.123,-287.8314C680.183,-279.1337 691.1782,-268.5783 701.0239,-259.1265"/>
<polygon fill="#c0c0c0" stroke="#c0c0c0" stroke-width="2" points="703.4877,-261.613 708.2777,-252.1628 698.64,-256.5633 703.4877,-261.613"/>
</g>
<!-- 15&#45;&gt;11 -->
<g id="edge30" class="edge">
<title>15&#45;&gt;11</title>
<path fill="none" stroke="#c0c0c0" stroke-width="2" d="M605.1265,-294.1913C551.1942,-280.6612 463.4393,-258.6461 410.3324,-245.3231"/>
<polygon fill="#c0c0c0" stroke="#c0c0c0" stroke-width="2" points="411.0656,-241.8986 400.5144,-242.86 409.3622,-248.6882 411.0656,-241.8986"/>
</g>
<!-- 16&#45;&gt;8 -->
<g id="edge19" class="edge">
<title>16&#45;&gt;8</title>
<path fill="none" stroke="#c0c0c0" stroke-width="2" d="M939.1974,-287.8314C939.1974,-280.131 939.1974,-270.9743 939.1974,-262.4166"/>
<polygon fill="#c0c0c0" stroke="#c0c0c0" stroke-width="2" points="942.6975,-262.4132 939.1974,-252.4133 935.6975,-262.4133 942.6975,-262.4132"/>
</g>
<!-- 17&#45;&gt;9 -->
<g id="edge22" class="edge">
<title>17&#45;&gt;9</title>
<path fill="none" stroke="#c0c0c0" stroke-width="2" d="M115.7308,-287.8314C131.2074,-278.6221 150.1843,-267.3301 166.7537,-257.4706"/>
<polygon fill="#c0c0c0" stroke="#c0c0c0" stroke-width="2" points="168.8698,-260.2843 175.6737,-252.1628 165.2903,-254.2687 168.8698,-260.2843"/>
</g>
<!-- 18&#45;&gt;10 -->
<g id="edge25" class="edge">
<title>18&#45;&gt;10</title>
<path fill="none" stroke="#c0c0c0" stroke-width="2" d="M789.2529,-287.8314C779.1282,-279.0485 766.8197,-268.3712 755.8426,-258.8489"/>
<polygon fill="#c0c0c0" stroke="#c0c0c0" stroke-width="2" points="757.9824,-256.0718 748.1351,-252.1628 753.3955,-261.3595 757.9824,-256.0718"/>
</g>
<!-- 19&#45;&gt;11 -->
<g id="edge31" class="edge">
<title>19&#45;&gt;11</title>
<path fill="none" stroke="#c0c0c0" stroke-width="2" d="M365.1974,-287.8314C365.1974,-280.131 365.1974,-270.9743 365.1974,-262.4166"/>
<polygon fill="#c0c0c0" stroke="#c0c0c0" stroke-width="2" points="368.6975,-262.4132 365.1974,-252.4133 361.6975,-262.4133 368.6975,-262.4132"/>
</g>
<!-- 20&#45;&gt;14 -->
<g id="edge33" class="edge">
<title>20&#45;&gt;14</title>
<path fill="none" stroke="#c0c0c0" stroke-width="2" d="M439.1057,-575.9165C434.9412,-565.6179 430.3056,-552.3436 428.1974,-540 425.5037,-524.2284 425.0595,-519.6893 428.1974,-504 435.6162,-466.906 457.7889,-429.0886 474.4019,-404.6957"/>
<polygon fill="#c0c0c0" stroke="#c0c0c0" stroke-width="2" points="477.379,-406.5456 480.2333,-396.3424 471.6392,-402.5386 477.379,-406.5456"/>
</g>
<!-- 23 -->
<g id="node24" class="node">
<title>23</title>
<path fill="none" stroke="#59d856" stroke-width="2" d="M521.2988,-540C521.2988,-540 449.0959,-540 449.0959,-540 443.0959,-540 437.0959,-534 437.0959,-528 437.0959,-528 437.0959,-516 437.0959,-516 437.0959,-510 443.0959,-504 449.0959,-504 449.0959,-504 521.2988,-504 521.2988,-504 527.2988,-504 533.2988,-510 533.2988,-516 533.2988,-516 533.2988,-528 533.2988,-528 533.2988,-534 527.2988,-540 521.2988,-540"/>
<text text-anchor="middle" x="485.1974" y="-524" font-family="sans" font-size="10.00" fill="#000000">fastq_to_fasta</text>
<text text-anchor="middle" x="485.1974" y="-514" font-family="sans" font-size="10.00" fill="#000000">barcode: sampleX</text>
</g>
<!-- 20&#45;&gt;23 -->
<g id="edge43" class="edge">
<title>20&#45;&gt;23</title>
<path fill="none" stroke="#c0c0c0" stroke-width="2" d="M456.7864,-575.8314C461.0291,-567.7925 466.1094,-558.1666 470.7934,-549.2918"/>
<polygon fill="#c0c0c0" stroke="#c0c0c0" stroke-width="2" points="473.9069,-550.8908 475.4792,-540.4133 467.7162,-547.6235 473.9069,-550.8908"/>
</g>
<!-- 21 -->
<g id="node22" class="node">
<title>21</title>
<path fill="none" stroke="#5682d8" stroke-width="2" d="M509.1974,-468C509.1974,-468 479.1974,-468 479.1974,-468 473.1974,-468 467.1974,-462 467.1974,-456 467.1974,-456 467.1974,-444 467.1974,-444 467.1974,-438 473.1974,-432 479.1974,-432 479.1974,-432 509.1974,-432 509.1974,-432 515.1974,-432 521.1974,-438 521.1974,-444 521.1974,-444 521.1974,-456 521.1974,-456 521.1974,-462 515.1974,-468 509.1974,-468"/>
<text text-anchor="middle" x="494.1974" y="-447" font-family="sans" font-size="10.00" fill="#000000">blastn</text>
</g>
<!-- 21&#45;&gt;14 -->
<g id="edge34" class="edge">
<title>21&#45;&gt;14</title>
<path fill="none" stroke="#c0c0c0" stroke-width="2" d="M494.1974,-431.8314C494.1974,-424.131 494.1974,-414.9743 494.1974,-406.4166"/>
<polygon fill="#c0c0c0" stroke="#c0c0c0" stroke-width="2" points="497.6975,-406.4132 494.1974,-396.4133 490.6975,-406.4133 497.6975,-406.4132"/>
</g>
<!-- 22 -->
<g id="node23" class="node">
<title>22</title>
<path fill="none" stroke="#56d8a9" stroke-width="2" d="M612.3972,-540C612.3972,-540 563.9975,-540 563.9975,-540 557.9975,-540 551.9975,-534 551.9975,-528 551.9975,-528 551.9975,-516 551.9975,-516 551.9975,-510 557.9975,-504 563.9975,-504 563.9975,-504 612.3972,-504 612.3972,-504 618.3972,-504 624.3972,-510 624.3972,-516 624.3972,-516 624.3972,-528 624.3972,-528 624.3972,-534 618.3972,-540 612.3972,-540"/>
<text text-anchor="middle" x="588.1974" y="-519" font-family="sans" font-size="10.00" fill="#000000">makeblastdb</text>
</g>
<!-- 22&#45;&gt;21 -->
<g id="edge41" class="edge">
<title>22&#45;&gt;21</title>
<path fill="none" stroke="#c0c0c0" stroke-width="2" d="M564.4772,-503.8314C552.788,-494.8779 538.5286,-483.9558 525.9164,-474.2955"/>
<polygon fill="#c0c0c0" stroke="#c0c0c0" stroke-width="2" points="527.977,-471.4651 517.9099,-468.1628 523.7205,-477.0222 527.977,-471.4651"/>
</g>
<!-- 23&#45;&gt;21 -->
<g id="edge42" class="edge">
<title>23&#45;&gt;21</title>
<path fill="none" stroke="#c0c0c0" stroke-width="2" d="M487.4684,-503.8314C488.431,-496.131 489.5756,-486.9743 490.6453,-478.4166"/>
<polygon fill="#c0c0c0" stroke="#c0c0c0" stroke-width="2" points="494.1282,-478.7702 491.8957,-468.4133 487.1823,-477.9019 494.1282,-478.7702"/>
</g>
</g>
</svg>
