<?xml version="1.0" encoding="UTF-8" standalone="no"?>
<!DOCTYPE svg PUBLIC "-//W3C//DTD SVG 1.1//EN"
 "http://www.w3.org/Graphics/SVG/1.1/DTD/svg11.dtd">
<!-- Generated by graphviz version 2.40.1 (20161225.0304)
 -->
<!-- Title: snakemake_dag Pages: 1 -->
<svg width="695pt" height="548pt"
 viewBox="0.00 0.00 694.74 548.00" xmlns="http://www.w3.org/2000/svg" xmlns:xlink="http://www.w3.org/1999/xlink">
<g id="graph0" class="graph" transform="scale(1 1) rotate(0) translate(4 544)">
<title>snakemake_dag</title>
<polygon fill="#ffffff" stroke="transparent" points="-4,4 -4,-544 690.7432,-544 690.7432,4 -4,4"/>
<!-- 0 -->
<g id="node1" class="node">
<title>0</title>
<path fill="none" stroke="#bed856" stroke-width="2" d="M358.3716,-36C358.3716,-36 328.3716,-36 328.3716,-36 322.3716,-36 316.3716,-30 316.3716,-24 316.3716,-24 316.3716,-12 316.3716,-12 316.3716,-6 322.3716,0 328.3716,0 328.3716,0 358.3716,0 358.3716,0 364.3716,0 370.3716,-6 370.3716,-12 370.3716,-12 370.3716,-24 370.3716,-24 370.3716,-30 364.3716,-36 358.3716,-36"/>
<text text-anchor="middle" x="343.3716" y="-15" font-family="sans" font-size="10.00" fill="#000000">all</text>
</g>
<!-- 1 -->
<g id="node2" class="node">
<title>1</title>
<path fill="none" stroke="#568ad8" stroke-width="2" d="M392.615,-108C392.615,-108 294.1281,-108 294.1281,-108 288.1281,-108 282.1281,-102 282.1281,-96 282.1281,-96 282.1281,-84 282.1281,-84 282.1281,-78 288.1281,-72 294.1281,-72 294.1281,-72 392.615,-72 392.615,-72 398.615,-72 404.615,-78 404.615,-84 404.615,-84 404.615,-96 404.615,-96 404.615,-102 398.615,-108 392.615,-108"/>
<text text-anchor="middle" x="343.3716" y="-87" font-family="sans" font-size="10.00" fill="#000000">organise_minion_output</text>
</g>
<!-- 1&#45;&gt;0 -->
<g id="edge1" class="edge">
<title>1&#45;&gt;0</title>
<path fill="none" stroke="#c0c0c0" stroke-width="2" d="M343.3716,-71.8314C343.3716,-64.131 343.3716,-54.9743 343.3716,-46.4166"/>
<polygon fill="#c0c0c0" stroke="#c0c0c0" stroke-width="2" points="346.8717,-46.4132 343.3716,-36.4133 339.8717,-46.4133 346.8717,-46.4132"/>
</g>
<!-- 2 -->
<g id="node3" class="node">
<title>2</title>
<path fill="none" stroke="#568ad8" stroke-width="2" d="M251.615,-108C251.615,-108 153.1281,-108 153.1281,-108 147.1281,-108 141.1281,-102 141.1281,-96 141.1281,-96 141.1281,-84 141.1281,-84 141.1281,-78 147.1281,-72 153.1281,-72 153.1281,-72 251.615,-72 251.615,-72 257.615,-72 263.615,-78 263.615,-84 263.615,-84 263.615,-96 263.615,-96 263.615,-102 257.615,-108 251.615,-108"/>
<text text-anchor="middle" x="202.3716" y="-87" font-family="sans" font-size="10.00" fill="#000000">organise_minion_output</text>
</g>
<!-- 2&#45;&gt;0 -->
<g id="edge2" class="edge">
<title>2&#45;&gt;0</title>
<path fill="none" stroke="#c0c0c0" stroke-width="2" d="M237.9518,-71.8314C259.1294,-61.0173 285.9312,-47.3312 307.2105,-36.4652"/>
<polygon fill="#c0c0c0" stroke="#c0c0c0" stroke-width="2" points="308.9441,-39.51 316.2584,-31.845 305.7606,-33.2757 308.9441,-39.51"/>
</g>
<!-- 3 -->
<g id="node4" class="node">
<title>3</title>
<path fill="none" stroke="#568ad8" stroke-width="2" d="M110.615,-108C110.615,-108 12.1281,-108 12.1281,-108 6.1281,-108 .1281,-102 .1281,-96 .1281,-96 .1281,-84 .1281,-84 .1281,-78 6.1281,-72 12.1281,-72 12.1281,-72 110.615,-72 110.615,-72 116.615,-72 122.615,-78 122.615,-84 122.615,-84 122.615,-96 122.615,-96 122.615,-102 116.615,-108 110.615,-108"/>
<text text-anchor="middle" x="61.3716" y="-87" font-family="sans" font-size="10.00" fill="#000000">organise_minion_output</text>
</g>
<!-- 3&#45;&gt;0 -->
<g id="edge3" class="edge">
<title>3&#45;&gt;0</title>
<path fill="none" stroke="#c0c0c0" stroke-width="2" d="M122.9092,-74.2883C178.8065,-60.0166 259.4421,-39.4288 306.1183,-27.5115"/>
<polygon fill="#c0c0c0" stroke="#c0c0c0" stroke-width="2" points="307.2773,-30.8279 316.1006,-24.9628 305.5455,-24.0455 307.2773,-30.8279"/>
</g>
<!-- 4 -->
<g id="node5" class="node">
<title>4</title>
<path fill="none" stroke="#568ad8" stroke-width="2" d="M533.615,-108C533.615,-108 435.1281,-108 435.1281,-108 429.1281,-108 423.1281,-102 423.1281,-96 423.1281,-96 423.1281,-84 423.1281,-84 423.1281,-78 429.1281,-72 435.1281,-72 435.1281,-72 533.615,-72 533.615,-72 539.615,-72 545.615,-78 545.615,-84 545.615,-84 545.615,-96 545.615,-96 545.615,-102 539.615,-108 533.615,-108"/>
<text text-anchor="middle" x="484.3716" y="-87" font-family="sans" font-size="10.00" fill="#000000">organise_minion_output</text>
</g>
<!-- 4&#45;&gt;0 -->
<g id="edge4" class="edge">
<title>4&#45;&gt;0</title>
<path fill="none" stroke="#c0c0c0" stroke-width="2" d="M448.7913,-71.8314C427.6137,-61.0173 400.8119,-47.3312 379.5327,-36.4652"/>
<polygon fill="#c0c0c0" stroke="#c0c0c0" stroke-width="2" points="380.9826,-33.2757 370.4848,-31.845 377.7991,-39.51 380.9826,-33.2757"/>
</g>
<!-- 5 -->
<g id="node6" class="node">
<title>5</title>
<path fill="none" stroke="#568ad8" stroke-width="2" d="M674.615,-108C674.615,-108 576.1281,-108 576.1281,-108 570.1281,-108 564.1281,-102 564.1281,-96 564.1281,-96 564.1281,-84 564.1281,-84 564.1281,-78 570.1281,-72 576.1281,-72 576.1281,-72 674.615,-72 674.615,-72 680.615,-72 686.615,-78 686.615,-84 686.615,-84 686.615,-96 686.615,-96 686.615,-102 680.615,-108 674.615,-108"/>
<text text-anchor="middle" x="625.3716" y="-87" font-family="sans" font-size="10.00" fill="#000000">organise_minion_output</text>
</g>
<!-- 5&#45;&gt;0 -->
<g id="edge5" class="edge">
<title>5&#45;&gt;0</title>
<path fill="none" stroke="#c0c0c0" stroke-width="2" d="M563.834,-74.2883C507.9367,-60.0166 427.3011,-39.4288 380.6249,-27.5115"/>
<polygon fill="#c0c0c0" stroke="#c0c0c0" stroke-width="2" points="381.1976,-24.0455 370.6426,-24.9628 379.4659,-30.8279 381.1976,-24.0455"/>
</g>
<!-- 6 -->
<g id="node7" class="node">
<title>6</title>
<path fill="none" stroke="#56d8c1" stroke-width="2" d="M370.0192,-180C370.0192,-180 316.724,-180 316.724,-180 310.724,-180 304.724,-174 304.724,-168 304.724,-168 304.724,-156 304.724,-156 304.724,-150 310.724,-144 316.724,-144 316.724,-144 370.0192,-144 370.0192,-144 376.0192,-144 382.0192,-150 382.0192,-156 382.0192,-156 382.0192,-168 382.0192,-168 382.0192,-174 376.0192,-180 370.0192,-180"/>
<text text-anchor="middle" x="343.3716" y="-164" font-family="sans" font-size="10.00" fill="#000000">artic_minion</text>
<text text-anchor="middle" x="343.3716" y="-154" font-family="sans" font-size="10.00" fill="#000000">gene: KCNS1</text>
</g>
<!-- 6&#45;&gt;1 -->
<g id="edge6" class="edge">
<title>6&#45;&gt;1</title>
<path fill="none" stroke="#c0c0c0" stroke-width="2" d="M343.3716,-143.8314C343.3716,-136.131 343.3716,-126.9743 343.3716,-118.4166"/>
<polygon fill="#c0c0c0" stroke="#c0c0c0" stroke-width="2" points="346.8717,-118.4132 343.3716,-108.4133 339.8717,-118.4133 346.8717,-118.4132"/>
</g>
<!-- 7 -->
<g id="node8" class="node">
<title>7</title>
<path fill="none" stroke="#56d8c1" stroke-width="2" d="M249.2974,-180C249.2974,-180 203.4458,-180 203.4458,-180 197.4458,-180 191.4458,-174 191.4458,-168 191.4458,-168 191.4458,-156 191.4458,-156 191.4458,-150 197.4458,-144 203.4458,-144 203.4458,-144 249.2974,-144 249.2974,-144 255.2974,-144 261.2974,-150 261.2974,-156 261.2974,-156 261.2974,-168 261.2974,-168 261.2974,-174 255.2974,-180 249.2974,-180"/>
<text text-anchor="middle" x="226.3716" y="-164" font-family="sans" font-size="10.00" fill="#000000">artic_minion</text>
<text text-anchor="middle" x="226.3716" y="-154" font-family="sans" font-size="10.00" fill="#000000">gene: HSP4</text>
</g>
<!-- 7&#45;&gt;2 -->
<g id="edge7" class="edge">
<title>7&#45;&gt;2</title>
<path fill="none" stroke="#c0c0c0" stroke-width="2" d="M220.3154,-143.8314C217.7204,-136.0463 214.6292,-126.7729 211.7498,-118.1347"/>
<polygon fill="#c0c0c0" stroke="#c0c0c0" stroke-width="2" points="214.9921,-116.7933 208.5093,-108.4133 208.3513,-119.0069 214.9921,-116.7933"/>
</g>
<!-- 8 -->
<g id="node9" class="node">
<title>8</title>
<path fill="none" stroke="#56d8c1" stroke-width="2" d="M122.2828,-180C122.2828,-180 76.4604,-180 76.4604,-180 70.4604,-180 64.4604,-174 64.4604,-168 64.4604,-168 64.4604,-156 64.4604,-156 64.4604,-150 70.4604,-144 76.4604,-144 76.4604,-144 122.2828,-144 122.2828,-144 128.2828,-144 134.2828,-150 134.2828,-156 134.2828,-156 134.2828,-168 134.2828,-168 134.2828,-174 128.2828,-180 122.2828,-180"/>
<text text-anchor="middle" x="99.3716" y="-164" font-family="sans" font-size="10.00" fill="#000000">artic_minion</text>
<text text-anchor="middle" x="99.3716" y="-154" font-family="sans" font-size="10.00" fill="#000000">gene: GM9</text>
</g>
<!-- 8&#45;&gt;3 -->
<g id="edge8" class="edge">
<title>8&#45;&gt;3</title>
<path fill="none" stroke="#c0c0c0" stroke-width="2" d="M89.7826,-143.8314C85.5398,-135.7925 80.4595,-126.1666 75.7756,-117.2918"/>
<polygon fill="#c0c0c0" stroke="#c0c0c0" stroke-width="2" points="78.8527,-115.6235 71.0897,-108.4133 72.662,-118.8908 78.8527,-115.6235"/>
</g>
<!-- 9 -->
<g id="node10" class="node">
<title>9</title>
<path fill="none" stroke="#56d8c1" stroke-width="2" d="M458.2828,-180C458.2828,-180 412.4604,-180 412.4604,-180 406.4604,-180 400.4604,-174 400.4604,-168 400.4604,-168 400.4604,-156 400.4604,-156 400.4604,-150 406.4604,-144 412.4604,-144 412.4604,-144 458.2828,-144 458.2828,-144 464.2828,-144 470.2828,-150 470.2828,-156 470.2828,-156 470.2828,-168 470.2828,-168 470.2828,-174 464.2828,-180 458.2828,-180"/>
<text text-anchor="middle" x="435.3716" y="-164" font-family="sans" font-size="10.00" fill="#000000">artic_minion</text>
<text text-anchor="middle" x="435.3716" y="-154" font-family="sans" font-size="10.00" fill="#000000">gene: GM7</text>
</g>
<!-- 9&#45;&gt;4 -->
<g id="edge9" class="edge">
<title>9&#45;&gt;4</title>
<path fill="none" stroke="#c0c0c0" stroke-width="2" d="M447.7364,-143.8314C453.3224,-135.6232 460.0345,-125.7606 466.1788,-116.7323"/>
<polygon fill="#c0c0c0" stroke="#c0c0c0" stroke-width="2" points="469.1075,-118.6496 471.8403,-108.4133 463.3205,-114.7112 469.1075,-118.6496"/>
</g>
<!-- 10 -->
<g id="node11" class="node">
<title>10</title>
<path fill="none" stroke="#56d8c1" stroke-width="2" d="M550.7416,-180C550.7416,-180 500.0015,-180 500.0015,-180 494.0015,-180 488.0015,-174 488.0015,-168 488.0015,-168 488.0015,-156 488.0015,-156 488.0015,-150 494.0015,-144 500.0015,-144 500.0015,-144 550.7416,-144 550.7416,-144 556.7416,-144 562.7416,-150 562.7416,-156 562.7416,-156 562.7416,-168 562.7416,-168 562.7416,-174 556.7416,-180 550.7416,-180"/>
<text text-anchor="middle" x="525.3716" y="-164" font-family="sans" font-size="10.00" fill="#000000">artic_minion</text>
<text text-anchor="middle" x="525.3716" y="-154" font-family="sans" font-size="10.00" fill="#000000">gene: prima1</text>
</g>
<!-- 10&#45;&gt;5 -->
<g id="edge10" class="edge">
<title>10&#45;&gt;5</title>
<path fill="none" stroke="#c0c0c0" stroke-width="2" d="M550.6058,-143.8314C563.1596,-134.7927 578.4999,-123.7476 592.0107,-114.0198"/>
<polygon fill="#c0c0c0" stroke="#c0c0c0" stroke-width="2" points="594.0752,-116.8463 600.1454,-108.1628 589.985,-111.1655 594.0752,-116.8463"/>
</g>
<!-- 11 -->
<g id="node12" class="node">
<title>11</title>
<path fill="none" stroke="#56c1d8" stroke-width="2" d="M268.3716,-252C268.3716,-252 238.3716,-252 238.3716,-252 232.3716,-252 226.3716,-246 226.3716,-240 226.3716,-240 226.3716,-228 226.3716,-228 226.3716,-222 232.3716,-216 238.3716,-216 238.3716,-216 268.3716,-216 268.3716,-216 274.3716,-216 280.3716,-222 280.3716,-228 280.3716,-228 280.3716,-240 280.3716,-240 280.3716,-246 274.3716,-252 268.3716,-252"/>
<text text-anchor="middle" x="253.3716" y="-231" font-family="sans" font-size="10.00" fill="#000000">bin</text>
</g>
<!-- 11&#45;&gt;6 -->
<g id="edge11" class="edge">
<title>11&#45;&gt;6</title>
<path fill="none" stroke="#c0c0c0" stroke-width="2" d="M276.0824,-215.8314C287.1676,-206.9632 300.667,-196.1637 312.6568,-186.5718"/>
<polygon fill="#c0c0c0" stroke="#c0c0c0" stroke-width="2" points="315.0458,-189.1429 320.668,-180.1628 310.6729,-183.6768 315.0458,-189.1429"/>
</g>
<!-- 11&#45;&gt;7 -->
<g id="edge14" class="edge">
<title>11&#45;&gt;7</title>
<path fill="none" stroke="#c0c0c0" stroke-width="2" d="M246.5583,-215.8314C243.6072,-207.9617 240.0858,-198.5712 236.8166,-189.8533"/>
<polygon fill="#c0c0c0" stroke="#c0c0c0" stroke-width="2" points="240.065,-188.5476 233.2766,-180.4133 233.5107,-191.0055 240.065,-188.5476"/>
</g>
<!-- 11&#45;&gt;8 -->
<g id="edge17" class="edge">
<title>11&#45;&gt;8</title>
<path fill="none" stroke="#c0c0c0" stroke-width="2" d="M226.194,-221.2936C203.3305,-210.6042 170.1968,-195.1131 143.53,-182.6455"/>
<polygon fill="#c0c0c0" stroke="#c0c0c0" stroke-width="2" points="144.936,-179.4393 134.3948,-178.3745 141.9713,-185.7804 144.936,-179.4393"/>
</g>
<!-- 11&#45;&gt;9 -->
<g id="edge21" class="edge">
<title>11&#45;&gt;9</title>
<path fill="none" stroke="#c0c0c0" stroke-width="2" d="M280.3918,-223.5677C306.398,-213.4961 347.0572,-197.6696 390.922,-180.1547"/>
<polygon fill="#c0c0c0" stroke="#c0c0c0" stroke-width="2" points="392.3417,-183.3565 400.3268,-176.393 389.7421,-176.8571 392.3417,-183.3565"/>
</g>
<!-- 11&#45;&gt;10 -->
<g id="edge23" class="edge">
<title>11&#45;&gt;10</title>
<path fill="none" stroke="#c0c0c0" stroke-width="2" d="M280.4145,-223.6836C288.0899,-220.967 296.5011,-218.1874 304.3716,-216 377.8896,-195.5671 401.4049,-201.9833 478.4787,-180.0021"/>
<polygon fill="#c0c0c0" stroke="#c0c0c0" stroke-width="2" points="479.5329,-183.3405 488.1504,-177.177 477.5701,-176.6213 479.5329,-183.3405"/>
</g>
<!-- 12 -->
<g id="node13" class="node">
<title>12</title>
<path fill="none" stroke="#88d856" stroke-width="2" stroke-dasharray="5,2" d="M395.2135,-252C395.2135,-252 325.5297,-252 325.5297,-252 319.5297,-252 313.5297,-246 313.5297,-240 313.5297,-240 313.5297,-228 313.5297,-228 313.5297,-222 319.5297,-216 325.5297,-216 325.5297,-216 395.2135,-216 395.2135,-216 401.2135,-216 407.2135,-222 407.2135,-228 407.2135,-228 407.2135,-240 407.2135,-240 407.2135,-246 401.2135,-252 395.2135,-252"/>
<text text-anchor="middle" x="360.3716" y="-231" font-family="sans" font-size="10.00" fill="#000000">nanopolish_index</text>
</g>
<!-- 12&#45;&gt;6 -->
<g id="edge12" class="edge">
<title>12&#45;&gt;6</title>
<path fill="none" stroke="#c0c0c0" stroke-width="2" d="M356.0818,-215.8314C354.2636,-208.131 352.1016,-198.9743 350.0811,-190.4166"/>
<polygon fill="#c0c0c0" stroke="#c0c0c0" stroke-width="2" points="353.4235,-189.3414 347.7192,-180.4133 346.6108,-190.95 353.4235,-189.3414"/>
</g>
<!-- 12&#45;&gt;7 -->
<g id="edge15" class="edge">
<title>12&#45;&gt;7</title>
<path fill="none" stroke="#c0c0c0" stroke-width="2" d="M326.5577,-215.8314C309.1009,-206.4516 287.6229,-194.9112 269.0364,-184.9244"/>
<polygon fill="#c0c0c0" stroke="#c0c0c0" stroke-width="2" points="270.6402,-181.8129 260.1746,-180.1628 267.3269,-187.9792 270.6402,-181.8129"/>
</g>
<!-- 12&#45;&gt;8 -->
<g id="edge18" class="edge">
<title>12&#45;&gt;8</title>
<path fill="none" stroke="#c0c0c0" stroke-width="2" d="M313.4086,-221.0447C265.4521,-207.8153 191.5303,-187.4231 144.3179,-174.399"/>
<polygon fill="#c0c0c0" stroke="#c0c0c0" stroke-width="2" points="145.2384,-171.0222 134.6677,-171.7369 143.3768,-177.7702 145.2384,-171.0222"/>
</g>
<!-- 12&#45;&gt;9 -->
<g id="edge20" class="edge">
<title>12&#45;&gt;9</title>
<path fill="none" stroke="#c0c0c0" stroke-width="2" d="M379.2972,-215.8314C388.3573,-207.1337 399.3525,-196.5783 409.1981,-187.1265"/>
<polygon fill="#c0c0c0" stroke="#c0c0c0" stroke-width="2" points="411.6619,-189.613 416.452,-180.1628 406.8142,-184.5633 411.6619,-189.613"/>
</g>
<!-- 12&#45;&gt;10 -->
<g id="edge24" class="edge">
<title>12&#45;&gt;10</title>
<path fill="none" stroke="#c0c0c0" stroke-width="2" d="M402.008,-215.8314C425.3538,-205.6441 454.5403,-192.9082 478.6626,-182.3821"/>
<polygon fill="#c0c0c0" stroke="#c0c0c0" stroke-width="2" points="480.2101,-185.5256 487.9756,-178.3182 477.4104,-179.1098 480.2101,-185.5256"/>
</g>
<!-- 13 -->
<g id="node14" class="node">
<title>13</title>
<path fill="none" stroke="#56d88a" stroke-width="2" stroke-dasharray="5,2" d="M463.7232,-540C463.7232,-540 359.0199,-540 359.0199,-540 353.0199,-540 347.0199,-534 347.0199,-528 347.0199,-528 347.0199,-516 347.0199,-516 347.0199,-510 353.0199,-504 359.0199,-504 359.0199,-504 463.7232,-504 463.7232,-504 469.7232,-504 475.7232,-510 475.7232,-516 475.7232,-516 475.7232,-528 475.7232,-528 475.7232,-534 469.7232,-540 463.7232,-540"/>
<text text-anchor="middle" x="411.3716" y="-524" font-family="sans" font-size="10.00" fill="#000000">gather</text>
<text text-anchor="middle" x="411.3716" y="-514" font-family="sans" font-size="10.00" fill="#000000">run_name: aging_mice_1</text>
</g>
<!-- 13&#45;&gt;6 -->
<g id="edge13" class="edge">
<title>13&#45;&gt;6</title>
<path fill="none" stroke="#c0c0c0" stroke-width="2" d="M419.4304,-503.7668C430.585,-476.8248 449.3716,-424.5405 449.3716,-378 449.3716,-378 449.3716,-378 449.3716,-306 449.3716,-263.3959 441.9059,-250.1044 416.3716,-216 407.7044,-204.4239 395.8752,-194.2101 384.263,-185.8689"/>
<polygon fill="#c0c0c0" stroke="#c0c0c0" stroke-width="2" points="386.1215,-182.8995 375.8941,-180.1333 382.1642,-188.6736 386.1215,-182.8995"/>
</g>
<!-- 13&#45;&gt;7 -->
<g id="edge16" class="edge">
<title>13&#45;&gt;7</title>
<path fill="none" stroke="#c0c0c0" stroke-width="2" d="M346.874,-517.7915C261.6992,-508.3363 122.3716,-477.6414 122.3716,-378 122.3716,-378 122.3716,-378 122.3716,-306 122.3716,-256.6014 163.0909,-212.6421 193.5713,-186.6562"/>
<polygon fill="#c0c0c0" stroke="#c0c0c0" stroke-width="2" points="195.9868,-189.2004 201.461,-180.1293 191.5248,-183.8068 195.9868,-189.2004"/>
</g>
<!-- 13&#45;&gt;8 -->
<g id="edge19" class="edge">
<title>13&#45;&gt;8</title>
<path fill="none" stroke="#c0c0c0" stroke-width="2" d="M346.9781,-515.3346C277.1758,-507.0664 171.3232,-491.1695 138.3716,-468 100.2127,-441.169 84.3716,-424.6476 84.3716,-378 84.3716,-378 84.3716,-378 84.3716,-306 84.3716,-265.6589 90.2673,-219.3012 94.6663,-190.327"/>
<polygon fill="#c0c0c0" stroke="#c0c0c0" stroke-width="2" points="98.175,-190.5433 96.2636,-180.1223 91.2592,-189.4608 98.175,-190.5433"/>
</g>
<!-- 13&#45;&gt;9 -->
<g id="edge22" class="edge">
<title>13&#45;&gt;9</title>
<path fill="none" stroke="#c0c0c0" stroke-width="2" d="M433.3094,-503.9897C443.7933,-494.3187 455.6986,-481.6033 463.3716,-468 483.7098,-431.9426 487.3716,-419.3978 487.3716,-378 487.3716,-378 487.3716,-378 487.3716,-306 487.3716,-263.2538 466.8503,-217.3861 451.5908,-189.1881"/>
<polygon fill="#c0c0c0" stroke="#c0c0c0" stroke-width="2" points="454.5808,-187.3634 446.6548,-180.3327 448.4664,-190.7715 454.5808,-187.3634"/>
</g>
<!-- 13&#45;&gt;10 -->
<g id="edge25" class="edge">
<title>13&#45;&gt;10</title>
<path fill="none" stroke="#c0c0c0" stroke-width="2" d="M443.5315,-503.8509C457.7809,-494.5718 473.8809,-482.2296 485.3716,-468 512.872,-433.9445 525.3716,-421.7727 525.3716,-378 525.3716,-378 525.3716,-378 525.3716,-306 525.3716,-265.876 525.3716,-219.4631 525.3716,-190.4177"/>
<polygon fill="#c0c0c0" stroke="#c0c0c0" stroke-width="2" points="528.8717,-190.1853 525.3716,-180.1854 521.8717,-190.1854 528.8717,-190.1853"/>
</g>
<!-- 13&#45;&gt;12 -->
<g id="edge28" class="edge">
<title>13&#45;&gt;12</title>
<path fill="none" stroke="#c0c0c0" stroke-width="2" d="M410.0335,-503.9043C407.6358,-473.8436 401.9427,-411.7942 392.3716,-360 386.0636,-325.8642 375.7841,-287.2637 368.5825,-261.8857"/>
<polygon fill="#c0c0c0" stroke="#c0c0c0" stroke-width="2" points="371.924,-260.8407 365.7996,-252.1954 365.1959,-262.773 371.924,-260.8407"/>
</g>
<!-- 15 -->
<g id="node16" class="node">
<title>15</title>
<path fill="none" stroke="#d8bc56" stroke-width="2" stroke-dasharray="5,2" d="M364.9155,-468C364.9155,-468 297.8276,-468 297.8276,-468 291.8276,-468 285.8276,-462 285.8276,-456 285.8276,-456 285.8276,-444 285.8276,-444 285.8276,-438 291.8276,-432 297.8276,-432 297.8276,-432 364.9155,-432 364.9155,-432 370.9155,-432 376.9155,-438 376.9155,-444 376.9155,-444 376.9155,-456 376.9155,-456 376.9155,-462 370.9155,-468 364.9155,-468"/>
<text text-anchor="middle" x="331.3716" y="-447" font-family="sans" font-size="10.00" fill="#000000">demultiplex_qcat</text>
</g>
<!-- 13&#45;&gt;15 -->
<g id="edge31" class="edge">
<title>13&#45;&gt;15</title>
<path fill="none" stroke="#c0c0c0" stroke-width="2" d="M391.1842,-503.8314C381.5202,-495.1337 369.792,-484.5783 359.2899,-475.1265"/>
<polygon fill="#c0c0c0" stroke="#c0c0c0" stroke-width="2" points="361.3269,-472.251 351.5525,-468.1628 356.6441,-477.454 361.3269,-472.251"/>
</g>
<!-- 14 -->
<g id="node15" class="node">
<title>14</title>
<path fill="none" stroke="#d88d56" stroke-width="2" stroke-dasharray="5,2" d="M268.3716,-324C268.3716,-324 238.3716,-324 238.3716,-324 232.3716,-324 226.3716,-318 226.3716,-312 226.3716,-312 226.3716,-300 226.3716,-300 226.3716,-294 232.3716,-288 238.3716,-288 238.3716,-288 268.3716,-288 268.3716,-288 274.3716,-288 280.3716,-294 280.3716,-300 280.3716,-300 280.3716,-312 280.3716,-312 280.3716,-318 274.3716,-324 268.3716,-324"/>
<text text-anchor="middle" x="253.3716" y="-303" font-family="sans" font-size="10.00" fill="#000000">blastn</text>
</g>
<!-- 14&#45;&gt;11 -->
<g id="edge26" class="edge">
<title>14&#45;&gt;11</title>
<path fill="none" stroke="#c0c0c0" stroke-width="2" d="M253.3716,-287.8314C253.3716,-280.131 253.3716,-270.9743 253.3716,-262.4166"/>
<polygon fill="#c0c0c0" stroke="#c0c0c0" stroke-width="2" points="256.8717,-262.4132 253.3716,-252.4133 249.8717,-262.4133 256.8717,-262.4132"/>
</g>
<!-- 15&#45;&gt;11 -->
<g id="edge27" class="edge">
<title>15&#45;&gt;11</title>
<path fill="none" stroke="#c0c0c0" stroke-width="2" d="M285.6782,-439.8868C245.6571,-429.9935 191.9695,-413.8449 179.3716,-396 148.3344,-352.0359 193.7043,-292.9713 225.9336,-259.6603"/>
<polygon fill="#c0c0c0" stroke="#c0c0c0" stroke-width="2" points="228.8161,-261.7252 233.3854,-252.1663 223.8524,-256.7894 228.8161,-261.7252"/>
</g>
<!-- 16 -->
<g id="node17" class="node">
<title>16</title>
<path fill="none" stroke="#59d856" stroke-width="2" stroke-dasharray="5,2" d="M371.8267,-396C371.8267,-396 290.9165,-396 290.9165,-396 284.9165,-396 278.9165,-390 278.9165,-384 278.9165,-384 278.9165,-372 278.9165,-372 278.9165,-366 284.9165,-360 290.9165,-360 290.9165,-360 371.8267,-360 371.8267,-360 377.8267,-360 383.8267,-366 383.8267,-372 383.8267,-372 383.8267,-384 383.8267,-384 383.8267,-390 377.8267,-396 371.8267,-396"/>
<text text-anchor="middle" x="331.3716" y="-380" font-family="sans" font-size="10.00" fill="#000000">fastq_to_fasta</text>
<text text-anchor="middle" x="331.3716" y="-370" font-family="sans" font-size="10.00" fill="#000000">barcode: barcode01</text>
</g>
<!-- 15&#45;&gt;16 -->
<g id="edge32" class="edge">
<title>15&#45;&gt;16</title>
<path fill="none" stroke="#c0c0c0" stroke-width="2" d="M331.3716,-431.8314C331.3716,-424.131 331.3716,-414.9743 331.3716,-406.4166"/>
<polygon fill="#c0c0c0" stroke="#c0c0c0" stroke-width="2" points="334.8717,-406.4132 331.3716,-396.4133 327.8717,-406.4133 334.8717,-406.4132"/>
</g>
<!-- 16&#45;&gt;14 -->
<g id="edge29" class="edge">
<title>16&#45;&gt;14</title>
<path fill="none" stroke="#c0c0c0" stroke-width="2" d="M311.6889,-359.8314C302.2665,-351.1337 290.8315,-340.5783 280.592,-331.1265"/>
<polygon fill="#c0c0c0" stroke="#c0c0c0" stroke-width="2" points="282.77,-328.3738 273.048,-324.1628 278.022,-333.5175 282.77,-328.3738"/>
</g>
<!-- 17 -->
<g id="node18" class="node">
<title>17</title>
<path fill="none" stroke="#d85656" stroke-width="2" stroke-dasharray="5,2" d="M248.5714,-396C248.5714,-396 200.1717,-396 200.1717,-396 194.1717,-396 188.1717,-390 188.1717,-384 188.1717,-384 188.1717,-372 188.1717,-372 188.1717,-366 194.1717,-360 200.1717,-360 200.1717,-360 248.5714,-360 248.5714,-360 254.5714,-360 260.5714,-366 260.5714,-372 260.5714,-372 260.5714,-384 260.5714,-384 260.5714,-390 254.5714,-396 248.5714,-396"/>
<text text-anchor="middle" x="224.3716" y="-375" font-family="sans" font-size="10.00" fill="#000000">makeblastdb</text>
</g>
<!-- 17&#45;&gt;14 -->
<g id="edge30" class="edge">
<title>17&#45;&gt;14</title>
<path fill="none" stroke="#c0c0c0" stroke-width="2" d="M231.6895,-359.8314C234.8592,-351.9617 238.6415,-342.5712 242.1529,-333.8533"/>
<polygon fill="#c0c0c0" stroke="#c0c0c0" stroke-width="2" points="245.4655,-334.9968 245.9551,-324.4133 238.9724,-332.3815 245.4655,-334.9968"/>
</g>
</g>
</svg>
